  0
SECTION
  2
HEADER
  9
$ANGBASE
  50
0.0
  9
$ANGDIR
  70
1
  9
$MEASUREMENT
  70
1
  0
ENDSEC
  0
SECTION
  2
TABLES
  0
TABLE
  2
LTYPE
  70
4
  0
LTYPE
  5
40F
  2
CONTINUOUS
  70
0
  3
Solid line
  72
65
  73
0
  40
0.0
  0
LTYPE
  5
410
  2
DASHDOT
 70
0
  3
Dash Dot ____ _ ____ _
 72
65
 73
4
 40
2.0
 49
1.25
 49
-0.25
 49
0.25
 49
-0.25
  0
LTYPE
  5
411
  2
DASHED
 70
0
  3
Dashed __ __ __ __ __
 72
65
 73
2
 40
0.75
 49
0.5
 49
-0.25
  0
LTYPE
  5
43B
  2
DOTTED
 70
0
  3
Dotted .  .  .  .
 72
65
 73
2
 40
0.2
 49
0.0
 49
-0.2
  0
ENDTAB
  0
TABLE
  2
STYLE
  70
4
  0
STYLE
  2
KICAD
  70
0
  40
0
  41
1
  42
1
  50
0
  71
0
  3
isocp.shx
  0
STYLE
  2
KICADB
  70
0
  40
0
  41
1
  42
1
  50
0
  71
0
  3
isocp.shx
  0
STYLE
  2
KICADI
  70
0
  40
0
  41
1
  42
1
  50
15
  71
0
  3
isocp.shx
  0
STYLE
  2
KICADBI
  70
0
  40
0
  41
1
  42
1
  50
15
  71
0
  3
isocp.shx
  0
ENDTAB
  0
TABLE
  2
LAYER
  70
1
  0
LAYER
  2
BLACK
  70
0
  62
7
  6
CONTINUOUS
  0
ENDTAB
  0
ENDSEC
  0
SECTION
  2
ENTITIES
0
LINE
8
BLACK
6
CONTINUOUS
10
206.9538000000000011
20
-89.0196849999999955
11
206.9995549999999866
21
-89.0724889999999903
0
LINE
8
BLACK
6
CONTINUOUS
10
206.9995549999999866
20
-89.0724889999999903
11
207.0102519999999799
21
-89.1127740000000017
0
LINE
8
BLACK
6
CONTINUOUS
10
207.0102519999999799
20
-89.1127740000000017
11
207.9989789999999914
21
-99.9887739999999923
0
LINE
8
BLACK
6
CONTINUOUS
10
207.9989789999999914
20
-99.9887739999999923
11
207.9989789999999914
21
-100.0112259999999935
0
LINE
8
BLACK
6
CONTINUOUS
10
207.9989789999999914
20
-100.0112259999999935
11
207.0102519999999799
21
-110.8872259999999983
0
LINE
8
BLACK
6
CONTINUOUS
10
207.0102519999999799
20
-110.8872259999999983
11
206.9845789999999965
21
-110.9522079999999988
0
LINE
8
BLACK
6
CONTINUOUS
10
206.9845789999999965
20
-110.9522079999999988
11
206.9278489999999806
21
-110.9929949999999934
0
LINE
8
BLACK
6
CONTINUOUS
10
206.9278489999999806
20
-110.9929949999999934
11
206.8867609999999786
21
-111.
0
LINE
8
BLACK
6
CONTINUOUS
10
206.8867609999999786
20
-111.
11
101.113238999999993
21
-111.
0
LINE
8
BLACK
6
CONTINUOUS
10
101.113238999999993
20
-111.
11
101.0461999999999989
21
-110.9803149999999903
0
LINE
8
BLACK
6
CONTINUOUS
10
101.0461999999999989
20
-110.9803149999999903
11
101.0004449999999991
21
-110.9275109999999955
0
LINE
8
BLACK
6
CONTINUOUS
10
101.0004449999999991
20
-110.9275109999999955
11
100.9897479999999916
21
-110.8872259999999983
0
LINE
8
BLACK
6
CONTINUOUS
10
100.9897479999999916
20
-110.8872259999999983
11
100.2173969999999912
21
-102.3913689999999974
0
LINE
8
BLACK
6
CONTINUOUS
10
100.2173969999999912
20
-102.3913689999999974
11
100.0010199999999969
21
-100.0112199999999945
0
LINE
8
BLACK
6
CONTINUOUS
10
100.0010199999999969
20
-100.0112199999999945
11
100.0010199999999969
21
-100.
0
LINE
8
BLACK
6
CONTINUOUS
10
100.0010199999999969
20
-100.
11
100.0010199999999969
21
-99.9887799999999913
0
LINE
8
BLACK
6
CONTINUOUS
10
100.0010199999999969
20
-99.9887799999999913
11
100.9897479999999916
21
-89.1127740000000017
0
LINE
8
BLACK
6
CONTINUOUS
10
100.9897479999999916
20
-89.1127740000000017
11
101.0154209999999892
21
-89.0477920000000012
0
LINE
8
BLACK
6
CONTINUOUS
10
101.0154209999999892
20
-89.0477920000000012
11
101.072150999999991
21
-89.0070049999999924
0
LINE
8
BLACK
6
CONTINUOUS
10
101.072150999999991
20
-89.0070049999999924
11
101.113238999999993
21
-89.
0
LINE
8
BLACK
6
CONTINUOUS
10
101.113238999999993
20
-89.
11
206.8867609999999786
21
-89.
0
LINE
8
BLACK
6
CONTINUOUS
10
206.8867609999999786
20
-89.
11
206.9538000000000011
21
-89.0196849999999955
0
LINE
8
BLACK
6
CONTINUOUS
10
107.1074119999999965
20
-100.1539289999999909
11
107.1172539999999884
21
-100.3072189999999893
0
LINE
8
BLACK
6
CONTINUOUS
10
107.1172539999999884
20
-100.3072189999999893
11
107.1172539999999884
21
-100.3072250000000025
0
LINE
8
BLACK
6
CONTINUOUS
10
107.1172539999999884
20
-100.3072250000000025
11
107.1761020000000002
21
-100.6093949999999921
0
LINE
8
BLACK
6
CONTINUOUS
10
107.1761020000000002
20
-100.6093949999999921
11
107.1761039999999952
21
-100.6094019999999887
0
LINE
8
BLACK
6
CONTINUOUS
10
107.1761039999999952
20
-100.6094019999999887
11
107.2731079999999935
21
-100.9015639999999934
0
LINE
8
BLACK
6
CONTINUOUS
10
107.2731079999999935
20
-100.9015639999999934
11
107.4066809999999919
21
-101.178929999999994
0
LINE
8
BLACK
6
CONTINUOUS
10
107.4066809999999919
20
-101.178929999999994
11
107.4066809999999919
21
-101.1789309999999915
0
LINE
8
BLACK
6
CONTINUOUS
10
107.4066809999999919
20
-101.1789309999999915
11
107.5746219999999909
21
-101.4369359999999887
0
LINE
8
BLACK
6
CONTINUOUS
10
107.5746219999999909
20
-101.4369359999999887
11
107.5746290000000016
21
-101.4369459999999918
0
LINE
8
BLACK
6
CONTINUOUS
10
107.5746290000000016
20
-101.4369459999999918
11
107.7741809999999987
21
-101.6713510000000014
0
LINE
8
BLACK
6
CONTINUOUS
10
107.7741809999999987
20
-101.6713510000000014
11
107.7741910000000018
21
-101.6713609999999903
0
LINE
8
BLACK
6
CONTINUOUS
10
107.7741910000000018
20
-101.6713609999999903
11
108.0020779999999974
21
-101.8783219999999972
0
LINE
8
BLACK
6
CONTINUOUS
10
108.0020779999999974
20
-101.8783219999999972
11
108.0020820000000015
21
-101.8783260000000013
0
LINE
8
BLACK
6
CONTINUOUS
10
108.0020820000000015
20
-101.8783260000000013
11
108.2545729999999935
21
-102.0544529999999952
0
LINE
8
BLACK
6
CONTINUOUS
10
108.2545729999999935
20
-102.0544529999999952
11
108.2545769999999976
21
-102.0544549999999902
0
LINE
8
BLACK
6
CONTINUOUS
10
108.2545769999999976
20
-102.0544549999999902
11
108.5275199999999955
21
-102.1968490000000003
0
LINE
8
BLACK
6
CONTINUOUS
10
108.5275199999999955
20
-102.1968490000000003
11
108.8164309999999944
21
-102.3031709999999919
0
LINE
8
BLACK
6
CONTINUOUS
10
108.8164309999999944
20
-102.3031709999999919
11
109.1165659999999917
21
-102.3716749999999962
0
LINE
8
BLACK
6
CONTINUOUS
10
109.1165659999999917
20
-102.3716749999999962
11
109.4229969999999952
21
-102.4012359999999973
0
LINE
8
BLACK
6
CONTINUOUS
10
109.4229969999999952
20
-102.4012359999999973
11
109.7306919999999906
21
-102.3913689999999974
0
LINE
8
BLACK
6
CONTINUOUS
10
109.7306919999999906
20
-102.3913689999999974
11
110.0345999999999975
21
-102.3422359999999998
0
LINE
8
BLACK
6
CONTINUOUS
10
110.0345999999999975
20
-102.3422359999999998
11
110.3297290000000004
21
-102.2546430000000015
0
LINE
8
BLACK
6
CONTINUOUS
10
110.3297290000000004
20
-102.2546430000000015
11
110.6112349999999935
21
-102.1300289999999933
0
LINE
8
BLACK
6
CONTINUOUS
10
110.6112349999999935
20
-102.1300289999999933
11
110.8744930000000011
21
-101.9704399999999964
0
LINE
8
BLACK
6
CONTINUOUS
10
110.8744930000000011
20
-101.9704399999999964
11
111.1151830000000018
21
-101.7784959999999899
0
LINE
8
BLACK
6
CONTINUOUS
10
111.1151830000000018
20
-101.7784959999999899
11
111.3293509999999884
21
-101.5573499999999996
0
LINE
8
BLACK
6
CONTINUOUS
10
111.3293509999999884
20
-101.5573499999999996
11
111.5134819999999962
21
-101.3106319999999982
0
LINE
8
BLACK
6
CONTINUOUS
10
111.5134819999999962
20
-101.3106319999999982
11
111.6645509999999888
21
-101.0423929999999899
0
LINE
8
BLACK
6
CONTINUOUS
10
111.6645509999999888
20
-101.0423929999999899
11
111.7800779999999889
21
-100.7570379999999943
0
LINE
8
BLACK
6
CONTINUOUS
10
111.7800779999999889
20
-100.7570379999999943
11
111.8581669999999946
21
-100.4592529999999897
0
LINE
8
BLACK
6
CONTINUOUS
10
111.8581669999999946
20
-100.4592529999999897
11
111.8975339999999932
21
-100.1539269999999959
0
LINE
8
BLACK
6
CONTINUOUS
10
111.8975339999999932
20
-100.1539269999999959
11
111.8999999999999915
21
-100.
0
LINE
8
BLACK
6
CONTINUOUS
10
111.8999999999999915
20
-100.
11
111.8975339999999932
21
-99.8460729999999899
0
LINE
8
BLACK
6
CONTINUOUS
10
111.8975339999999932
20
-99.8460729999999899
11
111.8581669999999946
21
-99.5407469999999961
0
LINE
8
BLACK
6
CONTINUOUS
10
111.8581669999999946
20
-99.5407469999999961
11
111.7800779999999889
21
-99.2429619999999915
0
LINE
8
BLACK
6
CONTINUOUS
10
111.7800779999999889
20
-99.2429619999999915
11
111.6645509999999888
21
-98.9576069999999959
0
LINE
8
BLACK
6
CONTINUOUS
10
111.6645509999999888
20
-98.9576069999999959
11
111.5134819999999962
21
-98.6893680000000018
0
LINE
8
BLACK
6
CONTINUOUS
10
111.5134819999999962
20
-98.6893680000000018
11
111.4192129999999992
21
-98.5630570000000006
0
LINE
8
BLACK
6
CONTINUOUS
10
111.4192129999999992
20
-98.5630570000000006
11
111.3293520000000001
21
-98.4426509999999979
0
LINE
8
BLACK
6
CONTINUOUS
10
111.3293520000000001
20
-98.4426509999999979
11
111.3293529999999976
21
-98.4426509999999979
0
LINE
8
BLACK
6
CONTINUOUS
10
111.3293529999999976
20
-98.4426509999999979
11
111.1151809999999927
21
-98.221502000000001
0
LINE
8
BLACK
6
CONTINUOUS
10
111.1151809999999927
20
-98.221502000000001
11
110.8744990000000001
21
-98.029564999999991
0
LINE
8
BLACK
6
CONTINUOUS
10
110.8744990000000001
20
-98.029564999999991
11
110.8744930000000011
21
-98.0295599999999894
0
LINE
8
BLACK
6
CONTINUOUS
10
110.8744930000000011
20
-98.0295599999999894
11
110.6112349999999935
21
-97.8699709999999925
0
LINE
8
BLACK
6
CONTINUOUS
10
110.6112349999999935
20
-97.8699709999999925
11
110.6112289999999945
21
-97.8699680000000001
0
LINE
8
BLACK
6
CONTINUOUS
10
110.6112289999999945
20
-97.8699680000000001
11
110.6112269999999995
21
-97.8699670000000026
0
LINE
8
BLACK
6
CONTINUOUS
10
110.6112269999999995
20
-97.8699670000000026
11
110.329734000000002
21
-97.745357999999996
0
LINE
8
BLACK
6
CONTINUOUS
10
110.329734000000002
20
-97.745357999999996
11
110.034600999999995
21
-97.6577640000000002
0
LINE
8
BLACK
6
CONTINUOUS
10
110.034600999999995
20
-97.6577640000000002
11
110.0345969999999909
21
-97.6577629999999886
0
LINE
8
BLACK
6
CONTINUOUS
10
110.0345969999999909
20
-97.6577629999999886
11
109.8409789999999902
21
-97.6264609999999919
0
LINE
8
BLACK
6
CONTINUOUS
10
109.8409789999999902
20
-97.6264609999999919
11
109.7306919999999906
21
-97.6086310000000026
0
LINE
8
BLACK
6
CONTINUOUS
10
109.7306919999999906
20
-97.6086310000000026
11
109.7306889999999981
21
-97.6086299999999909
0
LINE
8
BLACK
6
CONTINUOUS
10
109.7306889999999981
20
-97.6086299999999909
11
109.7306839999999966
21
-97.6086299999999909
0
LINE
8
BLACK
6
CONTINUOUS
10
109.7306839999999966
20
-97.6086299999999909
11
109.4230000000000018
21
-97.5987629999999911
0
LINE
8
BLACK
6
CONTINUOUS
10
109.4230000000000018
20
-97.5987629999999911
11
109.1165629999999993
21
-97.6283249999999896
0
LINE
8
BLACK
6
CONTINUOUS
10
109.1165629999999993
20
-97.6283249999999896
11
108.8164309999999944
21
-97.6968289999999939
0
LINE
8
BLACK
6
CONTINUOUS
10
108.8164309999999944
20
-97.6968289999999939
11
108.8164259999999928
21
-97.6968299999999914
0
LINE
8
BLACK
6
CONTINUOUS
10
108.8164259999999928
20
-97.6968299999999914
11
108.5275259999999946
21
-97.8031479999999931
0
LINE
8
BLACK
6
CONTINUOUS
10
108.5275259999999946
20
-97.8031479999999931
11
108.527512999999999
21
-97.8031539999999922
0
LINE
8
BLACK
6
CONTINUOUS
10
108.527512999999999
20
-97.8031539999999922
11
108.2545769999999976
21
-97.9455439999999982
0
LINE
8
BLACK
6
CONTINUOUS
10
108.2545769999999976
20
-97.9455439999999982
11
108.2545729999999935
21
-97.9455459999999931
0
LINE
8
BLACK
6
CONTINUOUS
10
108.2545729999999935
20
-97.9455459999999931
11
108.0020820000000015
21
-98.1216730000000013
0
LINE
8
BLACK
6
CONTINUOUS
10
108.0020820000000015
20
-98.1216730000000013
11
108.0020779999999974
21
-98.1216769999999912
0
LINE
8
BLACK
6
CONTINUOUS
10
108.0020779999999974
20
-98.1216769999999912
11
107.7741910000000018
21
-98.328637999999998
0
LINE
8
BLACK
6
CONTINUOUS
10
107.7741910000000018
20
-98.328637999999998
11
107.7741809999999987
21
-98.3286480000000012
0
LINE
8
BLACK
6
CONTINUOUS
10
107.7741809999999987
20
-98.3286480000000012
11
107.5746290000000016
21
-98.5630529999999965
0
LINE
8
BLACK
6
CONTINUOUS
10
107.5746290000000016
20
-98.5630529999999965
11
107.5746219999999909
21
-98.5630629999999996
0
LINE
8
BLACK
6
CONTINUOUS
10
107.5746219999999909
20
-98.5630629999999996
11
107.4066809999999919
21
-98.8210679999999968
0
LINE
8
BLACK
6
CONTINUOUS
10
107.4066809999999919
20
-98.8210679999999968
11
107.4066809999999919
21
-98.8210689999999943
0
LINE
8
BLACK
6
CONTINUOUS
10
107.4066809999999919
20
-98.8210689999999943
11
107.2731079999999935
21
-99.0984349999999949
0
LINE
8
BLACK
6
CONTINUOUS
10
107.2731079999999935
20
-99.0984349999999949
11
107.1761039999999952
21
-99.3905969999999996
0
LINE
8
BLACK
6
CONTINUOUS
10
107.1761039999999952
20
-99.3905969999999996
11
107.1761020000000002
21
-99.3906039999999962
0
LINE
8
BLACK
6
CONTINUOUS
10
107.1761020000000002
20
-99.3906039999999962
11
107.1172539999999884
21
-99.692774
0
LINE
8
BLACK
6
CONTINUOUS
10
107.1172539999999884
20
-99.692774
11
107.1172539999999884
21
-99.6927799999999991
0
LINE
8
BLACK
6
CONTINUOUS
10
107.1172539999999884
20
-99.6927799999999991
11
107.107412999999994
21
-99.8460699999999974
0
LINE
8
BLACK
6
CONTINUOUS
10
107.107412999999994
20
-99.8460699999999974
11
107.0975299999999919
21
-100.
0
LINE
8
BLACK
6
CONTINUOUS
10
107.0975299999999919
20
-100.
11
107.1074119999999965
21
-100.1539289999999909
  0
ENDSEC
  0
EOF
