  0
SECTION
  2
HEADER
  9
$ANGBASE
  50
0.0
  9
$ANGDIR
  70
1
  9
$MEASUREMENT
  70
1
  0
ENDSEC
  0
SECTION
  2
TABLES
  0
TABLE
  2
LTYPE
  70
4
  0
LTYPE
  5
40F
  2
CONTINUOUS
  70
0
  3
Solid line
  72
65
  73
0
  40
0.0
  0
LTYPE
  5
410
  2
DASHDOT
 70
0
  3
Dash Dot ____ _ ____ _
 72
65
 73
4
 40
2.0
 49
1.25
 49
-0.25
 49
0.25
 49
-0.25
  0
LTYPE
  5
411
  2
DASHED
 70
0
  3
Dashed __ __ __ __ __
 72
65
 73
2
 40
0.75
 49
0.5
 49
-0.25
  0
LTYPE
  5
43B
  2
DOTTED
 70
0
  3
Dotted .  .  .  .
 72
65
 73
2
 40
0.2
 49
0.0
 49
-0.2
  0
ENDTAB
  0
TABLE
  2
STYLE
  70
4
  0
STYLE
  2
KICAD
  70
0
  40
0
  41
1
  42
1
  50
0
  71
0
  3
isocp.shx
  0
STYLE
  2
KICADB
  70
0
  40
0
  41
1
  42
1
  50
0
  71
0
  3
isocp.shx
  0
STYLE
  2
KICADI
  70
0
  40
0
  41
1
  42
1
  50
15
  71
0
  3
isocp.shx
  0
STYLE
  2
KICADBI
  70
0
  40
0
  41
1
  42
1
  50
15
  71
0
  3
isocp.shx
  0
ENDTAB
  0
TABLE
  2
LAYER
  70
1
  0
LAYER
  2
BLACK
  70
0
  62
7
  6
CONTINUOUS
  0
ENDTAB
  0
ENDSEC
  0
SECTION
  2
ENTITIES
0
LINE
8
BLACK
6
CONTINUOUS
10
181.5499059999999929
20
-106.3461089999999984
11
181.7391120000000058
21
-106.3781899999999894
0
LINE
8
BLACK
6
CONTINUOUS
10
181.7391120000000058
20
-106.3781899999999894
11
181.9088710000000049
21
-106.4291419999999988
0
LINE
8
BLACK
6
CONTINUOUS
10
181.9088710000000049
20
-106.4291419999999988
11
182.0593299999999886
21
-106.4969099999999997
0
LINE
8
BLACK
6
CONTINUOUS
10
182.0593299999999886
20
-106.4969099999999997
11
182.1906379999999785
21
-106.5794369999999986
0
LINE
8
BLACK
6
CONTINUOUS
10
182.1906379999999785
20
-106.5794369999999986
11
182.3029439999999965
21
-106.6746639999999928
0
LINE
8
BLACK
6
CONTINUOUS
10
182.3029439999999965
20
-106.6746639999999928
11
182.3963959999999815
21
-106.7805339999999887
0
LINE
8
BLACK
6
CONTINUOUS
10
182.3963959999999815
20
-106.7805339999999887
11
182.4711419999999862
21
-106.8949909999999903
0
LINE
8
BLACK
6
CONTINUOUS
10
182.4711419999999862
20
-106.8949909999999903
11
182.5419629999999813
21
-107.0574009999999987
0
LINE
8
BLACK
6
CONTINUOUS
10
182.5419629999999813
20
-107.0574009999999987
11
182.5801469999999824
21
-107.2265429999999924
0
LINE
8
BLACK
6
CONTINUOUS
10
182.5801469999999824
20
-107.2265429999999924
11
182.1852059999999938
21
-107.2265429999999924
0
LINE
8
BLACK
6
CONTINUOUS
10
182.1852059999999938
20
-107.2265429999999924
11
182.1452089999999941
21
-107.1019509999999997
0
LINE
8
BLACK
6
CONTINUOUS
10
182.1452089999999941
20
-107.1019509999999997
11
182.0690469999999834
21
-106.9653160000000014
0
LINE
8
BLACK
6
CONTINUOUS
10
182.0690469999999834
20
-106.9653160000000014
11
181.9719379999999944
21
-106.8591219999999993
0
LINE
8
BLACK
6
CONTINUOUS
10
181.9719379999999944
20
-106.8591219999999993
11
181.8296499999999867
21
-106.7637699999999938
0
LINE
8
BLACK
6
CONTINUOUS
10
181.8296499999999867
20
-106.7637699999999938
11
181.6743740000000003
21
-106.7034839999999889
0
LINE
8
BLACK
6
CONTINUOUS
10
181.6743740000000003
20
-106.7034839999999889
11
181.5170789999999954
21
-106.6713199999999944
0
LINE
8
BLACK
6
CONTINUOUS
10
181.5170789999999954
20
-106.6713199999999944
11
181.3411030000000039
21
-106.6600699999999904
0
LINE
8
BLACK
6
CONTINUOUS
10
181.3411030000000039
20
-106.6600699999999904
11
181.1906129999999848
21
-106.6696929999999952
0
LINE
8
BLACK
6
CONTINUOUS
10
181.1906129999999848
20
-106.6696929999999952
11
181.0473120000000051
21
-106.698520000000002
0
LINE
8
BLACK
6
CONTINUOUS
10
181.0473120000000051
20
-106.698520000000002
11
180.8702989999999886
21
-106.7667209999999898
0
LINE
8
BLACK
6
CONTINUOUS
10
180.8702989999999886
20
-106.7667209999999898
11
180.7129620000000045
21
-106.8688049999999947
0
LINE
8
BLACK
6
CONTINUOUS
10
180.7129620000000045
20
-106.8688049999999947
11
180.610242999999997
21
-106.9675159999999892
0
LINE
8
BLACK
6
CONTINUOUS
10
180.610242999999997
20
-106.9675159999999892
11
180.5224719999999934
21
-107.0851419999999905
0
LINE
8
BLACK
6
CONTINUOUS
10
180.5224719999999934
20
-107.0851419999999905
11
180.451311000000004
21
-107.221620999999999
0
LINE
8
BLACK
6
CONTINUOUS
10
180.451311000000004
20
-107.221620999999999
11
180.3984229999999798
21
-107.3768910000000005
0
LINE
8
BLACK
6
CONTINUOUS
10
180.3984229999999798
20
-107.3768910000000005
11
180.3654709999999852
21
-107.5508899999999954
0
LINE
8
BLACK
6
CONTINUOUS
10
180.3654709999999852
20
-107.5508899999999954
11
180.3541179999999997
21
-107.7435559999999981
0
LINE
8
BLACK
6
CONTINUOUS
10
180.3541179999999997
20
-107.7435559999999981
11
180.3571309999999812
21
-107.8621729999999985
0
LINE
8
BLACK
6
CONTINUOUS
10
180.3571309999999812
20
-107.8621729999999985
11
180.3735069999999894
21
-108.0324959999999948
0
LINE
8
BLACK
6
CONTINUOUS
10
180.3735069999999894
20
-108.0324959999999948
11
180.4051800000000014
21
-108.1921710000000019
0
LINE
8
BLACK
6
CONTINUOUS
10
180.4051800000000014
20
-108.1921710000000019
11
180.4533519999999953
21
-108.3394839999999988
0
LINE
8
BLACK
6
CONTINUOUS
10
180.4533519999999953
20
-108.3394839999999988
11
180.5192250000000058
21
-108.4727180000000004
0
LINE
8
BLACK
6
CONTINUOUS
10
180.5192250000000058
20
-108.4727180000000004
11
180.6040040000000033
21
-108.5901599999999974
0
LINE
8
BLACK
6
CONTINUOUS
10
180.6040040000000033
20
-108.5901599999999974
11
180.7088899999999967
21
-108.690094000000002
0
LINE
8
BLACK
6
CONTINUOUS
10
180.7088899999999967
20
-108.690094000000002
11
180.8350859999999898
21
-108.7708059999999932
0
LINE
8
BLACK
6
CONTINUOUS
10
180.8350859999999898
20
-108.7708059999999932
11
180.983793999999989
21
-108.8305799999999977
0
LINE
8
BLACK
6
CONTINUOUS
10
180.983793999999989
20
-108.8305799999999977
11
181.1562179999999955
21
-108.8677019999999942
0
LINE
8
BLACK
6
CONTINUOUS
10
181.1562179999999955
20
-108.8677019999999942
11
181.35355899999999
21
-108.8804579999999902
0
LINE
8
BLACK
6
CONTINUOUS
10
181.35355899999999
20
-108.8804579999999902
11
181.4897619999999847
21
-108.8705499999999944
0
LINE
8
BLACK
6
CONTINUOUS
10
181.4897619999999847
20
-108.8705499999999944
11
181.6425610000000006
21
-108.8346169999999944
0
LINE
8
BLACK
6
CONTINUOUS
10
181.6425610000000006
20
-108.8346169999999944
11
181.8002170000000035
21
-108.763346999999996
0
LINE
8
BLACK
6
CONTINUOUS
10
181.8002170000000035
20
-108.763346999999996
11
181.9219499999999812
21
-108.6746289999999959
0
LINE
8
BLACK
6
CONTINUOUS
10
181.9219499999999812
20
-108.6746289999999959
11
182.0332669999999951
21
-108.5525679999999937
0
LINE
8
BLACK
6
CONTINUOUS
10
182.0332669999999951
20
-108.5525679999999937
11
182.1063039999999944
21
-108.4362709999999907
0
LINE
8
BLACK
6
CONTINUOUS
10
182.1063039999999944
20
-108.4362709999999907
11
182.1675649999999962
21
-108.2965239999999909
0
LINE
8
BLACK
6
CONTINUOUS
10
182.1675649999999962
20
-108.2965239999999909
11
182.2145150000000058
21
-108.1313159999999982
0
LINE
8
BLACK
6
CONTINUOUS
10
182.2145150000000058
20
-108.1313159999999982
11
182.6094559999999944
21
-108.1313159999999982
0
LINE
8
BLACK
6
CONTINUOUS
10
182.6094559999999944
20
-108.1313159999999982
11
182.5694879999999785
21
-108.3129059999999981
0
LINE
8
BLACK
6
CONTINUOUS
10
182.5694879999999785
20
-108.3129059999999981
11
182.5139250000000004
21
-108.472810999999993
0
LINE
8
BLACK
6
CONTINUOUS
10
182.5139250000000004
20
-108.472810999999993
11
182.444896
21
-108.6124069999999904
0
LINE
8
BLACK
6
CONTINUOUS
10
182.444896
20
-108.6124069999999904
11
182.364530000000002
21
-108.7330690000000004
0
LINE
8
BLACK
6
CONTINUOUS
10
182.364530000000002
20
-108.7330690000000004
11
182.2273779999999874
21
-108.8815709999999939
0
LINE
8
BLACK
6
CONTINUOUS
10
182.2273779999999874
20
-108.8815709999999939
11
182.076689999999985
21
-108.9952109999999976
0
LINE
8
BLACK
6
CONTINUOUS
10
182.076689999999985
20
-108.9952109999999976
11
181.9196469999999977
21
-109.0786299999999898
0
LINE
8
BLACK
6
CONTINUOUS
10
181.9196469999999977
20
-109.0786299999999898
11
181.7634339999999895
21
-109.1364710000000002
0
LINE
8
BLACK
6
CONTINUOUS
10
181.7634339999999895
20
-109.1364710000000002
11
181.6152329999999893
21
-109.1733770000000021
0
LINE
8
BLACK
6
CONTINUOUS
10
181.6152329999999893
20
-109.1733770000000021
11
181.4425129999999911
21
-109.1980429999999984
0
LINE
8
BLACK
6
CONTINUOUS
10
181.4425129999999911
20
-109.1980429999999984
11
181.2905449999999803
21
-109.2049099999999981
0
LINE
8
BLACK
6
CONTINUOUS
10
181.2905449999999803
20
-109.2049099999999981
11
181.1625329999999963
21
-109.2001509999999911
0
LINE
8
BLACK
6
CONTINUOUS
10
181.1625329999999963
20
-109.2001509999999911
11
180.9731749999999977
21
-109.1745999999999981
0
LINE
8
BLACK
6
CONTINUOUS
10
180.9731749999999977
20
-109.1745999999999981
11
180.7899079999999969
21
-109.125867999999997
0
LINE
8
BLACK
6
CONTINUOUS
10
180.7899079999999969
20
-109.125867999999997
11
180.6159920000000056
21
-109.0527319999999918
0
LINE
8
BLACK
6
CONTINUOUS
10
180.6159920000000056
20
-109.0527319999999918
11
180.4546869999999785
21
-108.9539690000000007
0
LINE
8
BLACK
6
CONTINUOUS
10
180.4546869999999785
20
-108.9539690000000007
11
180.309252999999984
21
-108.8283569999999969
0
LINE
8
BLACK
6
CONTINUOUS
10
180.309252999999984
20
-108.8283569999999969
11
180.1829510000000028
21
-108.6746729999999985
0
LINE
8
BLACK
6
CONTINUOUS
10
180.1829510000000028
20
-108.6746729999999985
11
180.1109879999999919
21
-108.5560179999999946
0
LINE
8
BLACK
6
CONTINUOUS
10
180.1109879999999919
20
-108.5560179999999946
11
180.0499439999999822
21
-108.4239800000000002
0
LINE
8
BLACK
6
CONTINUOUS
10
180.0499439999999822
20
-108.4239800000000002
11
180.0007829999999842
21
-108.2781990000000008
0
LINE
8
BLACK
6
CONTINUOUS
10
180.0007829999999842
20
-108.2781990000000008
11
179.9644720000000007
21
-108.1183109999999914
0
LINE
8
BLACK
6
CONTINUOUS
10
179.9644720000000007
20
-108.1183109999999914
11
179.9419769999999801
21
-107.9439539999999909
0
LINE
8
BLACK
6
CONTINUOUS
10
179.9419769999999801
20
-107.9439539999999909
11
179.9342639999999847
21
-107.7547670000000011
0
LINE
8
BLACK
6
CONTINUOUS
10
179.9342639999999847
20
-107.7547670000000011
11
179.9358079999999802
21
-107.6768339999999995
0
LINE
8
BLACK
6
CONTINUOUS
10
179.9358079999999802
20
-107.6768339999999995
11
179.9480649999999855
21
-107.5257589999999936
0
LINE
8
BLACK
6
CONTINUOUS
10
179.9480649999999855
20
-107.5257589999999936
11
179.9723239999999862
21
-107.381463999999994
0
LINE
8
BLACK
6
CONTINUOUS
10
179.9723239999999862
20
-107.381463999999994
11
180.0083219999999926
21
-107.244419999999991
0
LINE
8
BLACK
6
CONTINUOUS
10
180.0083219999999926
20
-107.244419999999991
11
180.0557949999999892
21
-107.1150959999999941
0
LINE
8
BLACK
6
CONTINUOUS
10
180.0557949999999892
20
-107.1150959999999941
11
180.1144789999999887
21
-106.9939629999999937
0
LINE
8
BLACK
6
CONTINUOUS
10
180.1144789999999887
20
-106.9939629999999937
11
180.2229489999999998
21
-106.8286519999999911
0
LINE
8
BLACK
6
CONTINUOUS
10
180.2229489999999998
20
-106.8286519999999911
11
180.3551569999999913
21
-106.6844169999999963
0
LINE
8
BLACK
6
CONTINUOUS
10
180.3551569999999913
20
-106.6844169999999963
11
180.5102139999999906
21
-106.5628459999999933
0
LINE
8
BLACK
6
CONTINUOUS
10
180.5102139999999906
20
-106.5628459999999933
11
180.6872290000000021
21
-106.4655269999999945
0
LINE
8
BLACK
6
CONTINUOUS
10
180.6872290000000021
20
-106.4655269999999945
11
180.8853089999999781
21
-106.3940470000000005
0
LINE
8
BLACK
6
CONTINUOUS
10
180.8853089999999781
20
-106.3940470000000005
11
181.0286260000000027
21
-106.3615339999999918
0
LINE
8
BLACK
6
CONTINUOUS
10
181.0286260000000027
20
-106.3615339999999918
11
181.1806449999999984
21
-106.3416809999999941
0
LINE
8
BLACK
6
CONTINUOUS
10
181.1806449999999984
20
-106.3416809999999941
11
181.3411030000000039
21
-106.3349589999999978
0
LINE
8
BLACK
6
CONTINUOUS
10
181.3411030000000039
20
-106.3349589999999978
11
181.5499059999999929
21
-106.3461089999999984
0
LINE
8
BLACK
6
CONTINUOUS
10
188.1121219999999994
20
-106.3446050000000014
11
188.2965470000000039
21
-106.3724649999999912
0
LINE
8
BLACK
6
CONTINUOUS
10
188.2965470000000039
20
-106.3724649999999912
11
188.4639300000000048
21
-106.4169259999999895
0
LINE
8
BLACK
6
CONTINUOUS
10
188.4639300000000048
20
-106.4169259999999895
11
188.614910999999978
21
-106.4763710000000003
0
LINE
8
BLACK
6
CONTINUOUS
10
188.614910999999978
20
-106.4763710000000003
11
188.7501309999999819
21
-106.5491849999999943
0
LINE
8
BLACK
6
CONTINUOUS
10
188.7501309999999819
20
-106.5491849999999943
11
188.8702309999999898
21
-106.6337539999999962
0
LINE
8
BLACK
6
CONTINUOUS
10
188.8702309999999898
20
-106.6337539999999962
11
188.9758509999999774
21
-106.7284619999999933
0
LINE
8
BLACK
6
CONTINUOUS
10
188.9758509999999774
20
-106.7284619999999933
11
189.1085359999999866
21
-106.8860009999999932
0
LINE
8
BLACK
6
CONTINUOUS
10
189.1085359999999866
20
-106.8860009999999932
11
189.2122459999999933
21
-107.0572689999999909
0
LINE
8
BLACK
6
CONTINUOUS
10
189.2122459999999933
20
-107.0572689999999909
11
189.2891449999999907
21
-107.2368129999999979
0
LINE
8
BLACK
6
CONTINUOUS
10
189.2891449999999907
20
-107.2368129999999979
11
189.3413949999999772
21
-107.4191819999999922
0
LINE
8
BLACK
6
CONTINUOUS
10
189.3413949999999772
20
-107.4191819999999922
11
189.3711600000000033
21
-107.5989259999999916
0
LINE
8
BLACK
6
CONTINUOUS
10
189.3711600000000033
20
-107.5989259999999916
11
189.3805999999999869
21
-107.7705939999999885
0
LINE
8
BLACK
6
CONTINUOUS
10
189.3805999999999869
20
-107.7705939999999885
11
189.3795779999999809
21
-107.8265200000000021
0
LINE
8
BLACK
6
CONTINUOUS
10
189.3795779999999809
20
-107.8265200000000021
11
189.3636029999999835
21
-108.001300999999998
0
LINE
8
BLACK
6
CONTINUOUS
10
189.3636029999999835
20
-108.001300999999998
11
189.3265839999999969
21
-108.1823459999999955
0
LINE
8
BLACK
6
CONTINUOUS
10
189.3265839999999969
20
-108.1823459999999955
11
189.2663579999999968
21
-108.3642079999999908
0
LINE
8
BLACK
6
CONTINUOUS
10
189.2663579999999968
20
-108.3642079999999908
11
189.1807619999999872
21
-108.5414370000000019
0
LINE
8
BLACK
6
CONTINUOUS
10
189.1807619999999872
20
-108.5414370000000019
11
189.0676339999999982
21
-108.7085869999999943
0
LINE
8
BLACK
6
CONTINUOUS
10
189.0676339999999982
20
-108.7085869999999943
11
188.9758509999999774
21
-108.8117299999999972
0
LINE
8
BLACK
6
CONTINUOUS
10
188.9758509999999774
20
-108.8117299999999972
11
188.8702309999999898
21
-108.9063579999999973
0
LINE
8
BLACK
6
CONTINUOUS
10
188.8702309999999898
20
-108.9063579999999973
11
188.7501309999999819
21
-108.9908559999999937
0
LINE
8
BLACK
6
CONTINUOUS
10
188.7501309999999819
20
-108.9908559999999937
11
188.614910999999978
21
-109.0636109999999945
0
LINE
8
BLACK
6
CONTINUOUS
10
188.614910999999978
20
-109.0636109999999945
11
188.4639300000000048
21
-109.1230079999999987
0
LINE
8
BLACK
6
CONTINUOUS
10
188.4639300000000048
20
-109.1230079999999987
11
188.2965470000000039
21
-109.1674329999999884
0
LINE
8
BLACK
6
CONTINUOUS
10
188.2965470000000039
20
-109.1674329999999884
11
188.1121219999999994
21
-109.1952719999999886
0
LINE
8
BLACK
6
CONTINUOUS
10
188.1121219999999994
20
-109.1952719999999886
11
187.9100139999999897
21
-109.2049099999999981
0
LINE
8
BLACK
6
CONTINUOUS
10
187.9100139999999897
20
-109.2049099999999981
11
187.7080349999999953
21
-109.1952719999999886
0
LINE
8
BLACK
6
CONTINUOUS
10
187.7080349999999953
20
-109.1952719999999886
11
187.5237229999999897
21
-109.1674329999999884
0
LINE
8
BLACK
6
CONTINUOUS
10
187.5237229999999897
20
-109.1674329999999884
11
187.3564389999999946
21
-109.1230079999999987
0
LINE
8
BLACK
6
CONTINUOUS
10
187.3564389999999946
20
-109.1230079999999987
11
187.2055419999999799
21
-109.0636109999999945
0
LINE
8
BLACK
6
CONTINUOUS
10
187.2055419999999799
20
-109.0636109999999945
11
187.0703929999999957
21
-108.9908559999999937
0
LINE
8
BLACK
6
CONTINUOUS
10
187.0703929999999957
20
-108.9908559999999937
11
186.950351999999981
21
-108.9063579999999973
0
LINE
8
BLACK
6
CONTINUOUS
10
186.950351999999981
20
-108.9063579999999973
11
186.8447789999999884
21
-108.8117299999999972
0
LINE
8
BLACK
6
CONTINUOUS
10
186.8447789999999884
20
-108.8117299999999972
11
186.7121499999999799
21
-108.654326999999995
0
LINE
8
BLACK
6
CONTINUOUS
10
186.7121499999999799
20
-108.654326999999995
11
186.6084769999999935
21
-108.4832119999999946
0
LINE
8
BLACK
6
CONTINUOUS
10
186.6084769999999935
20
-108.4832119999999946
11
186.5315999999999974
21
-108.3038329999999974
0
LINE
8
BLACK
6
CONTINUOUS
10
186.5315999999999974
20
-108.3038329999999974
11
186.4793609999999831
21
-108.1216379999999901
0
LINE
8
BLACK
6
CONTINUOUS
10
186.4793609999999831
20
-108.1216379999999901
11
186.4496010000000012
21
-107.9420760000000001
0
LINE
8
BLACK
6
CONTINUOUS
10
186.4496010000000012
20
-107.9420760000000001
11
186.4401609999999891
21
-107.7705939999999885
0
LINE
8
BLACK
6
CONTINUOUS
10
186.4401609999999891
20
-107.7705939999999885
11
186.4411829999999952
21
-107.7146049999999917
0
LINE
8
BLACK
6
CONTINUOUS
10
186.4411829999999952
20
-107.7146049999999917
11
186.4571569999999952
21
-107.5396399999999915
0
LINE
8
BLACK
6
CONTINUOUS
10
186.4571569999999952
20
-107.5396399999999915
11
186.4941699999999969
21
-107.3584149999999937
0
LINE
8
BLACK
6
CONTINUOUS
10
186.4941699999999969
20
-107.3584149999999937
11
186.554380999999978
21
-107.1763819999999896
0
LINE
8
BLACK
6
CONTINUOUS
10
186.554380999999978
20
-107.1763819999999896
11
186.6399499999999989
21
-106.9989909999999895
0
LINE
8
BLACK
6
CONTINUOUS
10
186.6399499999999989
20
-106.9989909999999895
11
186.7530359999999803
21
-106.8316939999999988
0
LINE
8
BLACK
6
CONTINUOUS
10
186.7530359999999803
20
-106.8316939999999988
11
186.8447789999999884
21
-106.7284619999999933
0
LINE
8
BLACK
6
CONTINUOUS
10
186.8447789999999884
20
-106.7284619999999933
11
186.950351999999981
21
-106.6337539999999962
0
LINE
8
BLACK
6
CONTINUOUS
10
186.950351999999981
20
-106.6337539999999962
11
187.0703929999999957
21
-106.5491849999999943
0
LINE
8
BLACK
6
CONTINUOUS
10
187.0703929999999957
20
-106.5491849999999943
11
187.2055419999999799
21
-106.4763710000000003
0
LINE
8
BLACK
6
CONTINUOUS
10
187.2055419999999799
20
-106.4763710000000003
11
187.3564389999999946
21
-106.4169259999999895
0
LINE
8
BLACK
6
CONTINUOUS
10
187.3564389999999946
20
-106.4169259999999895
11
187.5237229999999897
21
-106.3724649999999912
0
LINE
8
BLACK
6
CONTINUOUS
10
187.5237229999999897
20
-106.3724649999999912
11
187.7080349999999953
21
-106.3446050000000014
0
LINE
8
BLACK
6
CONTINUOUS
10
187.7080349999999953
20
-106.3446050000000014
11
187.9100139999999897
21
-106.3349589999999978
0
LINE
8
BLACK
6
CONTINUOUS
10
187.9100139999999897
20
-106.3349589999999978
11
188.1121219999999994
21
-106.3446050000000014
0
LINE
8
BLACK
6
CONTINUOUS
10
187.7902719999999874
20
-106.6654779999999931
11
187.6225209999999777
21
-106.693201000000002
0
LINE
8
BLACK
6
CONTINUOUS
10
187.6225209999999777
20
-106.693201000000002
11
187.4695989999999881
21
-106.7431720000000013
0
LINE
8
BLACK
6
CONTINUOUS
10
187.4695989999999881
20
-106.7431720000000013
11
187.3321709999999882
21
-106.8139479999999963
0
LINE
8
BLACK
6
CONTINUOUS
10
187.3321709999999882
20
-106.8139479999999963
11
187.2109039999999993
21
-106.9040849999999949
0
LINE
8
BLACK
6
CONTINUOUS
10
187.2109039999999993
20
-106.9040849999999949
11
187.1064649999999858
21
-107.0121379999999931
0
LINE
8
BLACK
6
CONTINUOUS
10
187.1064649999999858
20
-107.0121379999999931
11
187.01952
21
-107.1366620000000012
0
LINE
8
BLACK
6
CONTINUOUS
10
187.01952
20
-107.1366620000000012
11
186.9507359999999778
21
-107.2762149999999934
0
LINE
8
BLACK
6
CONTINUOUS
10
186.9507359999999778
20
-107.2762149999999934
11
186.900779
21
-107.4293499999999995
0
LINE
8
BLACK
6
CONTINUOUS
10
186.900779
20
-107.4293499999999995
11
186.870317
21
-107.5946249999999935
0
LINE
8
BLACK
6
CONTINUOUS
10
186.870317
20
-107.5946249999999935
11
186.8600139999999783
21
-107.7705939999999885
0
LINE
8
BLACK
6
CONTINUOUS
10
186.8600139999999783
20
-107.7705939999999885
11
186.864609999999999
21
-107.888906999999989
0
LINE
8
BLACK
6
CONTINUOUS
10
186.864609999999999
20
-107.888906999999989
11
186.8884259999999813
21
-108.0577600000000018
0
LINE
8
BLACK
6
CONTINUOUS
10
186.8884259999999813
20
-108.0577600000000018
11
186.9319589999999778
21
-108.2149840000000012
0
LINE
8
BLACK
6
CONTINUOUS
10
186.9319589999999778
20
-108.2149840000000012
11
186.9945409999999981
21
-108.3591329999999999
0
LINE
8
BLACK
6
CONTINUOUS
10
186.9945409999999981
20
-108.3591329999999999
11
187.0755069999999876
21
-108.48875799999999
0
LINE
8
BLACK
6
CONTINUOUS
10
187.0755069999999876
20
-108.48875799999999
11
187.1741879999999867
21
-108.6024129999999985
0
LINE
8
BLACK
6
CONTINUOUS
10
187.1741879999999867
20
-108.6024129999999985
11
187.2899199999999951
21
-108.698648999999989
0
LINE
8
BLACK
6
CONTINUOUS
10
187.2899199999999951
20
-108.698648999999989
11
187.4220349999999939
21
-108.7760189999999909
0
LINE
8
BLACK
6
CONTINUOUS
10
187.4220349999999939
20
-108.7760189999999909
11
187.5698669999999879
21
-108.8330749999999938
0
LINE
8
BLACK
6
CONTINUOUS
10
187.5698669999999879
20
-108.8330749999999938
11
187.7327489999999841
21
-108.8683709999999962
0
LINE
8
BLACK
6
CONTINUOUS
10
187.7327489999999841
20
-108.8683709999999962
11
187.9100139999999897
21
-108.8804579999999902
0
LINE
8
BLACK
6
CONTINUOUS
10
187.9100139999999897
20
-108.8804579999999902
11
188.0298860000000047
21
-108.8750500000000017
0
LINE
8
BLACK
6
CONTINUOUS
10
188.0298860000000047
20
-108.8750500000000017
11
188.1978000000000009
21
-108.8473299999999995
0
LINE
8
BLACK
6
CONTINUOUS
10
188.1978000000000009
20
-108.8473299999999995
11
188.3508539999999982
21
-108.7973659999999967
0
LINE
8
BLACK
6
CONTINUOUS
10
188.3508539999999982
20
-108.7973659999999967
11
188.4883829999999989
21
-108.7266070000000013
0
LINE
8
BLACK
6
CONTINUOUS
10
188.4883829999999989
20
-108.7266070000000013
11
188.6097269999999924
21
-108.6364979999999889
0
LINE
8
BLACK
6
CONTINUOUS
10
188.6097269999999924
20
-108.6364979999999889
11
188.7142209999999807
21
-108.5284889999999933
0
LINE
8
BLACK
6
CONTINUOUS
10
188.7142209999999807
20
-108.5284889999999933
11
188.8012029999999868
21
-108.4040269999999992
0
LINE
8
BLACK
6
CONTINUOUS
10
188.8012029999999868
20
-108.4040269999999992
11
188.8700089999999818
21
-108.2645579999999939
0
LINE
8
BLACK
6
CONTINUOUS
10
188.8700089999999818
20
-108.2645579999999939
11
188.9199769999999887
21
-108.1115319999999969
0
LINE
8
BLACK
6
CONTINUOUS
10
188.9199769999999887
20
-108.1115319999999969
11
188.9504440000000045
21
-107.946393999999998
0
LINE
8
BLACK
6
CONTINUOUS
10
188.9504440000000045
20
-107.946393999999998
11
188.9607469999999978
21
-107.7705939999999885
0
LINE
8
BLACK
6
CONTINUOUS
10
188.9607469999999978
20
-107.7705939999999885
11
188.956152000000003
21
-107.6521639999999991
0
LINE
8
BLACK
6
CONTINUOUS
10
188.956152000000003
20
-107.6521639999999991
11
188.9323320000000024
21
-107.4831640000000021
0
LINE
8
BLACK
6
CONTINUOUS
10
188.9323320000000024
20
-107.4831640000000021
11
188.8887909999999977
21
-107.3258219999999881
0
LINE
8
BLACK
6
CONTINUOUS
10
188.8887909999999977
20
-107.3258219999999881
11
188.8261899999999969
21
-107.1815809999999942
0
LINE
8
BLACK
6
CONTINUOUS
10
188.8261899999999969
20
-107.1815809999999942
11
188.7451930000000004
21
-107.0518869999999936
0
LINE
8
BLACK
6
CONTINUOUS
10
188.7451930000000004
20
-107.0518869999999936
11
188.6464629999999829
21
-106.9381829999999951
0
LINE
8
BLACK
6
CONTINUOUS
10
188.6464629999999829
20
-106.9381829999999951
11
188.5306630000000041
21
-106.8419139999999885
0
LINE
8
BLACK
6
CONTINUOUS
10
188.5306630000000041
20
-106.8419139999999885
11
188.3984539999999868
21
-106.7645239999999944
0
LINE
8
BLACK
6
CONTINUOUS
10
188.3984539999999868
20
-106.7645239999999944
11
188.2505019999999831
21
-106.7074569999999909
0
LINE
8
BLACK
6
CONTINUOUS
10
188.2505019999999831
20
-106.7074569999999909
11
188.0874670000000037
21
-106.672157999999996
0
LINE
8
BLACK
6
CONTINUOUS
10
188.0874670000000037
20
-106.672157999999996
11
187.9100139999999897
21
-106.6600699999999904
0
LINE
8
BLACK
6
CONTINUOUS
10
187.9100139999999897
20
-106.6600699999999904
11
187.7902719999999874
21
-106.6654779999999931
0
LINE
8
BLACK
6
CONTINUOUS
10
191.0724060000000009
20
-106.3414159999999953
11
191.2381929999999954
21
-106.3599719999999991
0
LINE
8
BLACK
6
CONTINUOUS
10
191.2381929999999954
20
-106.3599719999999991
11
191.3842479999999853
21
-106.3893999999999949
0
LINE
8
BLACK
6
CONTINUOUS
10
191.3842479999999853
20
-106.3893999999999949
11
191.5690939999999785
21
-106.4512519999999967
0
LINE
8
BLACK
6
CONTINUOUS
10
191.5690939999999785
20
-106.4512519999999967
11
191.7166419999999789
21
-106.5306779999999947
0
LINE
8
BLACK
6
CONTINUOUS
10
191.7166419999999789
20
-106.5306779999999947
11
191.8311530000000005
21
-106.6235449999999929
0
LINE
8
BLACK
6
CONTINUOUS
10
191.8311530000000005
20
-106.6235449999999929
11
191.9398070000000018
21
-106.7611309999999918
0
LINE
8
BLACK
6
CONTINUOUS
10
191.9398070000000018
20
-106.7611309999999918
11
192.0073989999999924
21
-106.9054629999999975
0
LINE
8
BLACK
6
CONTINUOUS
10
192.0073989999999924
20
-106.9054629999999975
11
192.0440269999999998
21
-107.0467429999999922
0
LINE
8
BLACK
6
CONTINUOUS
10
192.0440269999999998
20
-107.0467429999999922
11
192.0616540000000043
21
-107.2041210000000007
0
LINE
8
BLACK
6
CONTINUOUS
10
192.0616540000000043
20
-107.2041210000000007
11
191.6791699999999992
21
-107.2041210000000007
0
LINE
8
BLACK
6
CONTINUOUS
10
191.6791699999999992
20
-107.2041210000000007
11
191.6640799999999842
21
-107.0929069999999967
0
LINE
8
BLACK
6
CONTINUOUS
10
191.6640799999999842
20
-107.0929069999999967
11
191.6174379999999928
21
-106.966984999999994
0
LINE
8
BLACK
6
CONTINUOUS
10
191.6174379999999928
20
-106.966984999999994
11
191.523321999999979
21
-106.8429609999999883
0
LINE
8
BLACK
6
CONTINUOUS
10
191.523321999999979
20
-106.8429609999999883
11
191.398239999999987
21
-106.7526979999999952
0
LINE
8
BLACK
6
CONTINUOUS
10
191.398239999999987
20
-106.7526979999999952
11
191.2516509999999812
21
-106.6926349999999957
0
LINE
8
BLACK
6
CONTINUOUS
10
191.2516509999999812
20
-106.6926349999999957
11
191.0930129999999849
21
-106.6592100000000016
0
LINE
8
BLACK
6
CONTINUOUS
10
191.0930129999999849
20
-106.6592100000000016
11
190.9317869999999857
21
-106.6488599999999991
0
LINE
8
BLACK
6
CONTINUOUS
10
190.9317869999999857
20
-106.6488599999999991
11
190.8817889999999977
21
-106.6496859999999884
0
LINE
8
BLACK
6
CONTINUOUS
10
190.8817889999999977
20
-106.6496859999999884
11
190.715974999999986
21
-106.6654279999999915
0
LINE
8
BLACK
6
CONTINUOUS
10
190.715974999999986
20
-106.6654279999999915
11
190.572938999999991
21
-106.6999579999999952
0
LINE
8
BLACK
6
CONTINUOUS
10
190.572938999999991
20
-106.6999579999999952
11
190.4403350000000046
21
-106.7609080000000006
0
LINE
8
BLACK
6
CONTINUOUS
10
190.4403350000000046
20
-106.7609080000000006
11
190.3320809999999881
21
-106.8547979999999882
0
LINE
8
BLACK
6
CONTINUOUS
10
190.3320809999999881
20
-106.8547979999999882
11
190.2620989999999779
21
-106.9881499999999903
0
LINE
8
BLACK
6
CONTINUOUS
10
190.2620989999999779
20
-106.9881499999999903
11
190.2430219999999963
21
-107.1276239999999973
0
LINE
8
BLACK
6
CONTINUOUS
10
190.2430219999999963
20
-107.1276239999999973
11
190.2555219999999849
21
-107.2254399999999919
0
LINE
8
BLACK
6
CONTINUOUS
10
190.2555219999999849
20
-107.2254399999999919
11
190.3311249999999859
21
-107.3524879999999939
0
LINE
8
BLACK
6
CONTINUOUS
10
190.3311249999999859
20
-107.3524879999999939
11
190.454086999999987
21
-107.4300059999999917
0
LINE
8
BLACK
6
CONTINUOUS
10
190.454086999999987
20
-107.4300059999999917
11
190.5998610000000042
21
-107.4738389999999981
0
LINE
8
BLACK
6
CONTINUOUS
10
190.5998610000000042
20
-107.4738389999999981
11
191.4608169999999916
21
-107.6525509999999883
0
LINE
8
BLACK
6
CONTINUOUS
10
191.4608169999999916
20
-107.6525509999999883
11
191.6023840000000007
21
-107.6901659999999907
0
LINE
8
BLACK
6
CONTINUOUS
10
191.6023840000000007
20
-107.6901659999999907
11
191.7631429999999852
21
-107.7557860000000005
0
LINE
8
BLACK
6
CONTINUOUS
10
191.7631429999999852
20
-107.7557860000000005
11
191.9016599999999926
21
-107.8440459999999916
0
LINE
8
BLACK
6
CONTINUOUS
10
191.9016599999999926
20
-107.8440459999999916
11
192.0133909999999844
21
-107.9570609999999959
0
LINE
8
BLACK
6
CONTINUOUS
10
192.0133909999999844
20
-107.9570609999999959
11
192.0937909999999818
21
-108.0969419999999985
0
LINE
8
BLACK
6
CONTINUOUS
10
192.0937909999999818
20
-108.0969419999999985
11
192.1324979999999982
21
-108.2296109999999913
0
LINE
8
BLACK
6
CONTINUOUS
10
192.1324979999999982
20
-108.2296109999999913
11
192.1459179999999947
21
-108.3819089999999932
0
LINE
8
BLACK
6
CONTINUOUS
10
192.1459179999999947
20
-108.3819089999999932
11
192.1383359999999811
21
-108.4975449999999881
0
LINE
8
BLACK
6
CONTINUOUS
10
192.1383359999999811
20
-108.4975449999999881
11
192.1003900000000044
21
-108.6513539999999978
0
LINE
8
BLACK
6
CONTINUOUS
10
192.1003900000000044
20
-108.6513539999999978
11
192.0341200000000015
21
-108.7828679999999935
0
LINE
8
BLACK
6
CONTINUOUS
10
192.0341200000000015
20
-108.7828679999999935
11
191.9435349999999971
21
-108.8935259999999943
0
LINE
8
BLACK
6
CONTINUOUS
10
191.9435349999999971
20
-108.8935259999999943
11
191.8326459999999827
21
-108.9847649999999959
0
LINE
8
BLACK
6
CONTINUOUS
10
191.8326459999999827
20
-108.9847649999999959
11
191.7054629999999804
21
-109.058021999999994
0
LINE
8
BLACK
6
CONTINUOUS
10
191.7054629999999804
20
-109.058021999999994
11
191.5659959999999842
21
-109.1147359999999935
0
LINE
8
BLACK
6
CONTINUOUS
10
191.5659959999999842
20
-109.1147359999999935
11
191.4182559999999853
21
-109.15634399999999
0
LINE
8
BLACK
6
CONTINUOUS
10
191.4182559999999853
20
-109.15634399999999
11
191.2662509999999827
21
-109.1842829999999935
0
LINE
8
BLACK
6
CONTINUOUS
10
191.2662509999999827
20
-109.1842829999999935
11
191.113993999999991
21
-109.1999929999999921
0
LINE
8
BLACK
6
CONTINUOUS
10
191.113993999999991
20
-109.1999929999999921
11
190.9654919999999834
21
-109.2049099999999981
0
LINE
8
BLACK
6
CONTINUOUS
10
190.9654919999999834
20
-109.2049099999999981
11
190.8170259999999985
21
-109.2010870000000011
0
LINE
8
BLACK
6
CONTINUOUS
10
190.8170259999999985
20
-109.2010870000000011
11
190.6448289999999872
21
-109.1852469999999897
0
LINE
8
BLACK
6
CONTINUOUS
10
190.6448289999999872
20
-109.1852469999999897
11
190.4667529999999829
21
-109.1513549999999952
0
LINE
8
BLACK
6
CONTINUOUS
10
190.4667529999999829
20
-109.1513549999999952
11
190.3245000000000005
21
-109.1059190000000001
0
LINE
8
BLACK
6
CONTINUOUS
10
190.3245000000000005
20
-109.1059190000000001
11
190.174351999999999
21
-109.0313079999999957
0
LINE
8
BLACK
6
CONTINUOUS
10
190.174351999999999
20
-109.0313079999999957
11
190.0539780000000007
21
-108.9444249999999954
0
LINE
8
BLACK
6
CONTINUOUS
10
190.0539780000000007
20
-108.9444249999999954
11
190.0082679999999868
21
-108.9050099999999901
0
LINE
8
BLACK
6
CONTINUOUS
10
190.0082679999999868
20
-108.9050099999999901
11
189.89781499999998
21
-108.7840329999999938
0
LINE
8
BLACK
6
CONTINUOUS
10
189.89781499999998
20
-108.7840329999999938
11
189.8226019999999892
21
-108.6586739999999907
0
LINE
8
BLACK
6
CONTINUOUS
10
189.8226019999999892
20
-108.6586739999999907
11
189.7764860000000056
21
-108.5285679999999928
0
LINE
8
BLACK
6
CONTINUOUS
10
189.7764860000000056
20
-108.5285679999999928
11
189.7533209999999997
21
-108.3933509999999956
0
LINE
8
BLACK
6
CONTINUOUS
10
189.7533209999999997
20
-108.3933509999999956
11
189.7469649999999888
21
-108.2526560000000018
0
LINE
8
BLACK
6
CONTINUOUS
10
189.7469649999999888
20
-108.2526560000000018
11
190.1294489999999939
21
-108.2526560000000018
0
LINE
8
BLACK
6
CONTINUOUS
10
190.1294489999999939
20
-108.2526560000000018
11
190.1345460000000003
21
-108.3413379999999933
0
LINE
8
BLACK
6
CONTINUOUS
10
190.1345460000000003
20
-108.3413379999999933
11
190.1731069999999875
21
-108.4952880000000022
0
LINE
8
BLACK
6
CONTINUOUS
10
190.1731069999999875
20
-108.4952880000000022
11
190.2445589999999811
21
-108.6200249999999983
0
LINE
8
BLACK
6
CONTINUOUS
10
190.2445589999999811
20
-108.6200249999999983
11
190.3711150000000032
21
-108.7385419999999954
0
LINE
8
BLACK
6
CONTINUOUS
10
190.3711150000000032
20
-108.7385419999999954
11
190.5282639999999788
21
-108.8198909999999984
0
LINE
8
BLACK
6
CONTINUOUS
10
190.5282639999999788
20
-108.8198909999999984
11
190.6682449999999847
21
-108.8613749999999953
0
LINE
8
BLACK
6
CONTINUOUS
10
190.6682449999999847
20
-108.8613749999999953
11
190.8144939999999963
21
-108.8844969999999961
0
LINE
8
BLACK
6
CONTINUOUS
10
190.8144939999999963
20
-108.8844969999999961
11
190.9610959999999977
21
-108.8916679999999957
0
LINE
8
BLACK
6
CONTINUOUS
10
190.9610959999999977
20
-108.8916679999999957
11
191.0484909999999843
21
-108.8896499999999889
0
LINE
8
BLACK
6
CONTINUOUS
10
191.0484909999999843
20
-108.8896499999999889
11
191.2084720000000004
21
-108.8748319999999978
0
LINE
8
BLACK
6
CONTINUOUS
10
191.2084720000000004
20
-108.8748319999999978
11
191.3725049999999896
21
-108.840644999999995
0
LINE
8
BLACK
6
CONTINUOUS
10
191.3725049999999896
20
-108.840644999999995
11
191.5246070000000032
21
-108.7812629999999956
0
LINE
8
BLACK
6
CONTINUOUS
10
191.5246070000000032
20
-108.7812629999999956
11
191.6487960000000044
21
-108.6908609999999982
0
LINE
8
BLACK
6
CONTINUOUS
10
191.6487960000000044
20
-108.6908609999999982
11
191.7290879999999902
21
-108.563611999999992
0
LINE
8
BLACK
6
CONTINUOUS
10
191.7290879999999902
20
-108.563611999999992
11
191.7509769999999776
21
-108.431367999999992
0
LINE
8
BLACK
6
CONTINUOUS
10
191.7509769999999776
20
-108.431367999999992
11
191.7394239999999854
21
-108.3112289999999973
0
LINE
8
BLACK
6
CONTINUOUS
10
191.7394239999999854
20
-108.3112289999999973
11
191.6782570000000021
21
-108.1816069999999996
0
LINE
8
BLACK
6
CONTINUOUS
10
191.6782570000000021
20
-108.1816069999999996
11
191.5531879999999774
21
-108.0850719999999967
0
LINE
8
BLACK
6
CONTINUOUS
10
191.5531879999999774
20
-108.0850719999999967
11
191.417745999999994
21
-108.0290799999999933
0
LINE
8
BLACK
6
CONTINUOUS
10
191.417745999999994
20
-108.0290799999999933
11
191.2781990000000008
21
-107.9883759999999882
0
LINE
8
BLACK
6
CONTINUOUS
10
191.2781990000000008
20
-107.9883759999999882
11
191.1083739999999977
21
-107.948646999999994
0
LINE
8
BLACK
6
CONTINUOUS
10
191.1083739999999977
20
-107.948646999999994
11
190.4906839999999875
21
-107.8193929999999909
0
LINE
8
BLACK
6
CONTINUOUS
10
190.4906839999999875
20
-107.8193929999999909
11
190.429271
21
-107.8052809999999937
0
LINE
8
BLACK
6
CONTINUOUS
10
190.429271
20
-107.8052809999999937
11
190.2808699999999931
21
-107.7585380000000015
0
LINE
8
BLACK
6
CONTINUOUS
10
190.2808699999999931
20
-107.7585380000000015
11
190.1474589999999978
21
-107.6944629999999989
0
LINE
8
BLACK
6
CONTINUOUS
10
190.1474589999999978
20
-107.6944629999999989
11
190.0221319999999992
21
-107.6010469999999941
0
LINE
8
BLACK
6
CONTINUOUS
10
190.0221319999999992
20
-107.6010469999999941
11
189.9207700000000045
21
-107.4721899999999977
0
LINE
8
BLACK
6
CONTINUOUS
10
189.9207700000000045
20
-107.4721899999999977
11
189.8676089999999874
21
-107.3394899999999978
0
LINE
8
BLACK
6
CONTINUOUS
10
189.8676089999999874
20
-107.3394899999999978
11
189.8480809999999792
21
-107.1770839999999936
0
LINE
8
BLACK
6
CONTINUOUS
10
189.8480809999999792
20
-107.1770839999999936
11
189.8626699999999801
21
-107.018777
0
LINE
8
BLACK
6
CONTINUOUS
10
189.8626699999999801
20
-107.018777
11
189.9073640000000012
21
-106.8660569999999979
0
LINE
8
BLACK
6
CONTINUOUS
10
189.9073640000000012
20
-106.8660569999999979
11
189.9835530000000006
21
-106.7237089999999995
0
LINE
8
BLACK
6
CONTINUOUS
10
189.9835530000000006
20
-106.7237089999999995
11
190.0926289999999881
21
-106.5965149999999966
0
LINE
8
BLACK
6
CONTINUOUS
10
190.0926289999999881
20
-106.5965149999999966
11
190.235984000000002
21
-106.4892600000000016
0
LINE
8
BLACK
6
CONTINUOUS
10
190.235984000000002
20
-106.4892600000000016
11
190.3668309999999906
21
-106.4247799999999984
0
LINE
8
BLACK
6
CONTINUOUS
10
190.3668309999999906
20
-106.4247799999999984
11
190.5183289999999943
21
-106.3762249999999909
0
LINE
8
BLACK
6
CONTINUOUS
10
190.5183289999999943
20
-106.3762249999999909
11
190.6910649999999805
21
-106.3456119999999885
0
LINE
8
BLACK
6
CONTINUOUS
10
190.6910649999999805
20
-106.3456119999999885
11
190.8856250000000045
21
-106.3349589999999978
0
LINE
8
BLACK
6
CONTINUOUS
10
190.8856250000000045
20
-106.3349589999999978
11
191.0724060000000009
21
-106.3414159999999953
0
LINE
8
BLACK
6
CONTINUOUS
10
184.5314029999999832
20
-108.7010859999999894
11
184.5394629999999836
21
-108.7010859999999894
0
LINE
8
BLACK
6
CONTINUOUS
10
184.5394629999999836
20
-108.7010859999999894
11
185.3967549999999846
21
-106.419368999999989
0
LINE
8
BLACK
6
CONTINUOUS
10
185.3967549999999846
20
-106.419368999999989
11
185.9763439999999832
21
-106.419368999999989
0
LINE
8
BLACK
6
CONTINUOUS
10
185.9763439999999832
20
-106.419368999999989
11
185.9763439999999832
21
-109.1204999999999927
0
LINE
8
BLACK
6
CONTINUOUS
10
185.9763439999999832
20
-109.1204999999999927
11
185.5814029999999946
21
-109.1204999999999927
0
LINE
8
BLACK
6
CONTINUOUS
10
185.5814029999999946
20
-109.1204999999999927
11
185.5814029999999946
21
-107.5259360000000015
0
LINE
8
BLACK
6
CONTINUOUS
10
185.5814029999999946
20
-107.5259360000000015
11
185.5823910000000012
21
-107.4403639999999882
0
LINE
8
BLACK
6
CONTINUOUS
10
185.5823910000000012
20
-107.4403639999999882
11
185.5846809999999891
21
-107.3014459999999985
0
LINE
8
BLACK
6
CONTINUOUS
10
185.5846809999999891
20
-107.3014459999999985
11
185.5869129999999814
21
-107.1567439999999891
0
LINE
8
BLACK
6
CONTINUOUS
10
185.5869129999999814
20
-107.1567439999999891
11
185.5887189999999975
21
-107.0031379999999928
0
LINE
8
BLACK
6
CONTINUOUS
10
185.5887189999999975
20
-107.0031379999999928
11
185.589462999999995
21
-106.8546099999999939
0
LINE
8
BLACK
6
CONTINUOUS
10
185.589462999999995
20
-106.8546099999999939
11
185.5814029999999946
21
-106.8546099999999939
0
LINE
8
BLACK
6
CONTINUOUS
10
185.5814029999999946
20
-106.8546099999999939
11
184.7329029999999932
21
-109.1204999999999927
0
LINE
8
BLACK
6
CONTINUOUS
10
184.7329029999999932
20
-109.1204999999999927
11
184.3299030000000016
21
-109.1204999999999927
0
LINE
8
BLACK
6
CONTINUOUS
10
184.3299030000000016
20
-109.1204999999999927
11
183.4814030000000002
21
-106.8579069999999973
0
LINE
8
BLACK
6
CONTINUOUS
10
183.4814030000000002
20
-106.8579069999999973
11
183.4726100000000031
21
-106.8579069999999973
0
LINE
8
BLACK
6
CONTINUOUS
10
183.4726100000000031
20
-106.8579069999999973
11
183.4728279999999927
21
-106.9298199999999923
0
LINE
8
BLACK
6
CONTINUOUS
10
183.4728279999999927
20
-106.9298199999999923
11
183.4743059999999844
21
-107.081403999999992
0
LINE
8
BLACK
6
CONTINUOUS
10
183.4743059999999844
20
-107.081403999999992
11
183.4765950000000032
21
-107.2315759999999898
0
LINE
8
BLACK
6
CONTINUOUS
10
183.4765950000000032
20
-107.2315759999999898
11
183.4793640000000039
21
-107.3861659999999887
0
LINE
8
BLACK
6
CONTINUOUS
10
183.4793640000000039
20
-107.3861659999999887
11
183.4814030000000002
21
-107.5259360000000015
0
LINE
8
BLACK
6
CONTINUOUS
10
183.4814030000000002
20
-107.5259360000000015
11
183.4814030000000002
21
-109.1204999999999927
0
LINE
8
BLACK
6
CONTINUOUS
10
183.4814030000000002
20
-109.1204999999999927
11
183.0864619999999832
21
-109.1204999999999927
0
LINE
8
BLACK
6
CONTINUOUS
10
183.0864619999999832
20
-109.1204999999999927
11
183.0864619999999832
21
-106.419368999999989
0
LINE
8
BLACK
6
CONTINUOUS
10
183.0864619999999832
20
-106.419368999999989
11
183.6704469999999958
21
-106.419368999999989
0
LINE
8
BLACK
6
CONTINUOUS
10
183.6704469999999958
20
-106.419368999999989
11
184.5314029999999832
21
-108.7010859999999894
0
LINE
8
BLACK
6
CONTINUOUS
10
196.5303899999999828
20
-106.4212559999999996
11
196.7132039999999904
21
-106.4374830000000003
0
LINE
8
BLACK
6
CONTINUOUS
10
196.7132039999999904
20
-106.4374830000000003
11
196.8872539999999844
21
-106.4728329999999943
0
LINE
8
BLACK
6
CONTINUOUS
10
196.8872539999999844
20
-106.4728329999999943
11
197.0467459999999846
21
-106.5303279999999972
0
LINE
8
BLACK
6
CONTINUOUS
10
197.0467459999999846
20
-106.5303279999999972
11
197.1858829999999898
21
-106.6129889999999989
0
LINE
8
BLACK
6
CONTINUOUS
10
197.1858829999999898
20
-106.6129889999999989
11
197.2988699999999938
21
-106.723836999999989
0
LINE
8
BLACK
6
CONTINUOUS
10
197.2988699999999938
20
-106.723836999999989
11
197.3799099999999953
21
-106.8658959999999922
0
LINE
8
BLACK
6
CONTINUOUS
10
197.3799099999999953
20
-106.8658959999999922
11
197.4162379999999928
21
-106.9947379999999981
0
LINE
8
BLACK
6
CONTINUOUS
10
197.4162379999999928
20
-106.9947379999999981
11
197.428890999999993
21
-107.1441109999999952
0
LINE
8
BLACK
6
CONTINUOUS
10
197.428890999999993
20
-107.1441109999999952
11
197.4262929999999869
21
-107.2153119999999973
0
LINE
8
BLACK
6
CONTINUOUS
10
197.4262929999999869
20
-107.2153119999999973
11
197.3990210000000047
21
-107.3697820000000007
0
LINE
8
BLACK
6
CONTINUOUS
10
197.3990210000000047
20
-107.3697820000000007
11
197.3468579999999974
21
-107.4943629999999928
0
LINE
8
BLACK
6
CONTINUOUS
10
197.3468579999999974
20
-107.4943629999999928
11
197.2598359999999786
21
-107.6109739999999988
0
LINE
8
BLACK
6
CONTINUOUS
10
197.2598359999999786
20
-107.6109739999999988
11
197.1377069999999776
21
-107.7118629999999939
0
LINE
8
BLACK
6
CONTINUOUS
10
197.1377069999999776
20
-107.7118629999999939
11
197.009036999999978
21
-107.7870799999999889
0
LINE
8
BLACK
6
CONTINUOUS
10
197.009036999999978
20
-107.7870799999999889
11
197.0733060000000023
21
-107.8120689999999939
0
LINE
8
BLACK
6
CONTINUOUS
10
197.0733060000000023
20
-107.8120689999999939
11
197.2084799999999802
21
-107.8880359999999996
0
LINE
8
BLACK
6
CONTINUOUS
10
197.2084799999999802
20
-107.8880359999999996
11
197.3041359999999997
21
-108.0052389999999889
0
LINE
8
BLACK
6
CONTINUOUS
10
197.3041359999999997
20
-108.0052389999999889
11
197.3515879999999925
21
-108.1419039999999967
0
LINE
8
BLACK
6
CONTINUOUS
10
197.3515879999999925
20
-108.1419039999999967
11
197.3702719999999999
21
-108.297499000000002
0
LINE
8
BLACK
6
CONTINUOUS
10
197.3702719999999999
20
-108.297499000000002
11
197.3951849999999979
21
-108.7881339999999994
0
LINE
8
BLACK
6
CONTINUOUS
10
197.3951849999999979
20
-108.7881339999999994
11
197.3977940000000046
21
-108.8405439999999942
0
LINE
8
BLACK
6
CONTINUOUS
10
197.3977940000000046
20
-108.8405439999999942
11
197.4341199999999787
21
-108.9716509999999943
0
LINE
8
BLACK
6
CONTINUOUS
10
197.4341199999999787
20
-108.9716509999999943
11
197.5461269999999843
21
-109.0604889999999898
0
LINE
8
BLACK
6
CONTINUOUS
10
197.5461269999999843
20
-109.0604889999999898
11
197.5461269999999843
21
-109.1204999999999927
0
LINE
8
BLACK
6
CONTINUOUS
10
197.5461269999999843
20
-109.1204999999999927
11
197.0464059999999904
21
-109.1204999999999927
0
LINE
8
BLACK
6
CONTINUOUS
10
197.0464059999999904
20
-109.1204999999999927
11
197.0221819999999866
21
-109.0267489999999952
0
LINE
8
BLACK
6
CONTINUOUS
10
197.0221819999999866
20
-109.0267489999999952
11
197.0009509999999864
21
-108.884687999999997
0
LINE
8
BLACK
6
CONTINUOUS
10
197.0009509999999864
20
-108.884687999999997
11
196.9870139999999878
21
-108.7310930000000013
0
LINE
8
BLACK
6
CONTINUOUS
10
196.9870139999999878
20
-108.7310930000000013
11
196.9790380000000027
21
-108.587900999999988
0
LINE
8
BLACK
6
CONTINUOUS
10
196.9790380000000027
20
-108.587900999999988
11
196.9753319999999803
21
-108.4406010000000009
0
LINE
8
BLACK
6
CONTINUOUS
10
196.9753319999999803
20
-108.4406010000000009
11
196.9736809999999991
21
-108.3773179999999883
0
LINE
8
BLACK
6
CONTINUOUS
10
196.9736809999999991
20
-108.3773179999999883
11
196.9487349999999992
21
-108.2300120000000021
0
LINE
8
BLACK
6
CONTINUOUS
10
196.9487349999999992
20
-108.2300120000000021
11
196.8746289999999988
21
-108.0984559999999988
0
LINE
8
BLACK
6
CONTINUOUS
10
196.8746289999999988
20
-108.0984559999999988
11
196.753596999999985
21
-108.0125149999999934
0
LINE
8
BLACK
6
CONTINUOUS
10
196.753596999999985
20
-108.0125149999999934
11
196.6005169999999964
21
-107.968874999999997
0
LINE
8
BLACK
6
CONTINUOUS
10
196.6005169999999964
20
-107.968874999999997
11
196.4375089999999773
21
-107.9572199999999924
0
LINE
8
BLACK
6
CONTINUOUS
10
196.4375089999999773
20
-107.9572199999999924
11
195.4505240000000015
21
-107.9572199999999924
0
LINE
8
BLACK
6
CONTINUOUS
10
195.4505240000000015
20
-107.9572199999999924
11
195.4505240000000015
21
-109.1204999999999927
0
LINE
8
BLACK
6
CONTINUOUS
10
195.4505240000000015
20
-109.1204999999999927
11
195.0431269999999984
21
-109.1204999999999927
0
LINE
8
BLACK
6
CONTINUOUS
10
195.0431269999999984
20
-109.1204999999999927
11
195.0431269999999984
21
-107.6433189999999911
0
LINE
8
BLACK
6
CONTINUOUS
10
195.0431269999999984
20
-107.6433189999999911
11
195.0431269999999984
21
-106.419368999999989
0
LINE
8
BLACK
6
CONTINUOUS
10
195.0431269999999984
20
-106.419368999999989
11
196.4375089999999773
21
-106.419368999999989
0
LINE
8
BLACK
6
CONTINUOUS
10
196.4375089999999773
20
-106.419368999999989
11
196.5303899999999828
21
-106.4212559999999996
0
LINE
8
BLACK
6
CONTINUOUS
10
195.4505240000000015
20
-107.6433189999999911
11
196.3957439999999792
21
-107.6433189999999911
0
LINE
8
BLACK
6
CONTINUOUS
10
196.3957439999999792
20
-107.6433189999999911
11
196.5355029999999772
21
-107.6374390000000005
0
LINE
8
BLACK
6
CONTINUOUS
10
196.5355029999999772
20
-107.6374390000000005
11
196.6957749999999976
21
-107.6090469999999897
0
LINE
8
BLACK
6
CONTINUOUS
10
196.6957749999999976
20
-107.6090469999999897
11
196.835534999999993
21
-107.5475739999999973
0
LINE
8
BLACK
6
CONTINUOUS
10
196.835534999999993
20
-107.5475739999999973
11
196.9416530000000023
21
-107.4426389999999998
0
LINE
8
BLACK
6
CONTINUOUS
10
196.9416530000000023
20
-107.4426389999999998
11
196.9949169999999867
21
-107.3145049999999969
0
LINE
8
BLACK
6
CONTINUOUS
10
196.9949169999999867
20
-107.3145049999999969
11
197.009036999999978
21
-107.1810399999999959
0
LINE
8
BLACK
6
CONTINUOUS
10
197.009036999999978
20
-107.1810399999999959
11
196.9859129999999823
21
-107.0134589999999974
0
LINE
8
BLACK
6
CONTINUOUS
10
196.9859129999999823
20
-107.0134589999999974
11
196.907749999999993
21
-106.8747569999999882
0
LINE
8
BLACK
6
CONTINUOUS
10
196.907749999999993
20
-106.8747569999999882
11
196.7710390000000018
21
-106.7816289999999952
0
LINE
8
BLACK
6
CONTINUOUS
10
196.7710390000000018
20
-106.7816289999999952
11
196.6140139999999974
21
-106.7417289999999923
0
LINE
8
BLACK
6
CONTINUOUS
10
196.6140139999999974
20
-106.7417289999999923
11
196.4668179999999893
21
-106.7332699999999903
0
LINE
8
BLACK
6
CONTINUOUS
10
196.4668179999999893
20
-106.7332699999999903
11
195.4505240000000015
21
-106.7332699999999903
0
LINE
8
BLACK
6
CONTINUOUS
10
195.4505240000000015
20
-106.7332699999999903
11
195.4505240000000015
21
-107.6433189999999911
0
LINE
8
BLACK
6
CONTINUOUS
10
200.4513959999999884
20
-109.1204999999999927
11
200.0058970000000045
21
-109.1204999999999927
0
LINE
8
BLACK
6
CONTINUOUS
10
200.0058970000000045
20
-109.1204999999999927
11
199.7076769999999897
21
-108.318601000000001
0
LINE
8
BLACK
6
CONTINUOUS
10
199.7076769999999897
20
-108.318601000000001
11
198.4979419999999948
21
-108.318601000000001
0
LINE
8
BLACK
6
CONTINUOUS
10
198.4979419999999948
20
-108.318601000000001
11
198.1828679999999849
21
-109.1204999999999927
0
LINE
8
BLACK
6
CONTINUOUS
10
198.1828679999999849
20
-109.1204999999999927
11
197.7630149999999958
21
-109.1204999999999927
0
LINE
8
BLACK
6
CONTINUOUS
10
197.7630149999999958
20
-109.1204999999999927
11
198.23175999999998
21
-107.9941489999999931
0
LINE
8
BLACK
6
CONTINUOUS
10
198.23175999999998
20
-107.9941489999999931
11
198.8972789999999975
21
-106.394968999999989
0
LINE
8
BLACK
6
CONTINUOUS
10
198.8972789999999975
20
-106.394968999999989
11
199.3588979999999822
21
-106.394968999999989
0
LINE
8
BLACK
6
CONTINUOUS
10
199.3588979999999822
20
-106.394968999999989
11
200.4513959999999884
21
-109.1204999999999927
0
LINE
8
BLACK
6
CONTINUOUS
10
198.6239709999999832
20
-107.9941489999999931
11
199.5603979999999922
21
-107.9941489999999931
0
LINE
8
BLACK
6
CONTINUOUS
10
199.5603979999999922
20
-107.9941489999999931
11
199.1156320000000051
21
-106.7992149999999896
0
LINE
8
BLACK
6
CONTINUOUS
10
199.1156320000000051
20
-106.7992149999999896
11
199.1068389999999795
21
-106.7992149999999896
0
LINE
8
BLACK
6
CONTINUOUS
10
199.1068389999999795
20
-106.7992149999999896
11
198.6239709999999832
21
-107.9941489999999931
0
LINE
8
BLACK
6
CONTINUOUS
10
202.2546409999999923
20
-108.7010859999999894
11
202.2627009999999927
21
-108.7010859999999894
0
LINE
8
BLACK
6
CONTINUOUS
10
202.2627009999999927
20
-108.7010859999999894
11
203.1199929999999938
21
-106.419368999999989
0
LINE
8
BLACK
6
CONTINUOUS
10
203.1199929999999938
20
-106.419368999999989
11
203.6995819999999924
21
-106.419368999999989
0
LINE
8
BLACK
6
CONTINUOUS
10
203.6995819999999924
20
-106.419368999999989
11
203.6995819999999924
21
-109.1204999999999927
0
LINE
8
BLACK
6
CONTINUOUS
10
203.6995819999999924
20
-109.1204999999999927
11
203.3046410000000037
21
-109.1204999999999927
0
LINE
8
BLACK
6
CONTINUOUS
10
203.3046410000000037
20
-109.1204999999999927
11
203.3046410000000037
21
-107.5259360000000015
0
LINE
8
BLACK
6
CONTINUOUS
10
203.3046410000000037
20
-107.5259360000000015
11
203.3056289999999819
21
-107.4403639999999882
0
LINE
8
BLACK
6
CONTINUOUS
10
203.3056289999999819
20
-107.4403639999999882
11
203.3079189999999983
21
-107.3014459999999985
0
LINE
8
BLACK
6
CONTINUOUS
10
203.3079189999999983
20
-107.3014459999999985
11
203.3101509999999905
21
-107.1567439999999891
0
LINE
8
BLACK
6
CONTINUOUS
10
203.3101509999999905
20
-107.1567439999999891
11
203.3119569999999783
21
-107.0031379999999928
0
LINE
8
BLACK
6
CONTINUOUS
10
203.3119569999999783
20
-107.0031379999999928
11
203.3127010000000041
21
-106.8546099999999939
0
LINE
8
BLACK
6
CONTINUOUS
10
203.3127010000000041
20
-106.8546099999999939
11
203.3046410000000037
21
-106.8546099999999939
0
LINE
8
BLACK
6
CONTINUOUS
10
203.3046410000000037
20
-106.8546099999999939
11
202.4561410000000024
21
-109.1204999999999927
0
LINE
8
BLACK
6
CONTINUOUS
10
202.4561410000000024
20
-109.1204999999999927
11
202.0531409999999823
21
-109.1204999999999927
0
LINE
8
BLACK
6
CONTINUOUS
10
202.0531409999999823
20
-109.1204999999999927
11
201.204640999999981
21
-106.8579069999999973
0
LINE
8
BLACK
6
CONTINUOUS
10
201.204640999999981
20
-106.8579069999999973
11
201.1958479999999838
21
-106.8579069999999973
0
LINE
8
BLACK
6
CONTINUOUS
10
201.1958479999999838
20
-106.8579069999999973
11
201.1960660000000018
21
-106.9298199999999923
0
LINE
8
BLACK
6
CONTINUOUS
10
201.1960660000000018
20
-106.9298199999999923
11
201.1975439999999935
21
-107.081403999999992
0
LINE
8
BLACK
6
CONTINUOUS
10
201.1975439999999935
20
-107.081403999999992
11
201.1998329999999839
21
-107.2315759999999898
0
LINE
8
BLACK
6
CONTINUOUS
10
201.1998329999999839
20
-107.2315759999999898
11
201.2026019999999846
21
-107.3861659999999887
0
LINE
8
BLACK
6
CONTINUOUS
10
201.2026019999999846
20
-107.3861659999999887
11
201.204640999999981
21
-107.5259360000000015
0
LINE
8
BLACK
6
CONTINUOUS
10
201.204640999999981
20
-107.5259360000000015
11
201.204640999999981
21
-109.1204999999999927
0
LINE
8
BLACK
6
CONTINUOUS
10
201.204640999999981
20
-109.1204999999999927
11
200.8096999999999923
21
-109.1204999999999927
0
LINE
8
BLACK
6
CONTINUOUS
10
200.8096999999999923
20
-109.1204999999999927
11
200.8096999999999923
21
-106.419368999999989
0
LINE
8
BLACK
6
CONTINUOUS
10
200.8096999999999923
20
-106.419368999999989
11
201.3936850000000049
21
-106.419368999999989
0
LINE
8
BLACK
6
CONTINUOUS
10
201.3936850000000049
20
-106.419368999999989
11
202.2546409999999923
21
-108.7010859999999894
0
LINE
8
BLACK
6
CONTINUOUS
10
112.9080149999999918
20
-106.5841470000000015
11
113.0931829999999962
21
-106.6270939999999996
0
LINE
8
BLACK
6
CONTINUOUS
10
113.0931829999999962
20
-106.6270939999999996
11
113.2486669999999975
21
-106.7016890000000018
0
LINE
8
BLACK
6
CONTINUOUS
10
113.2486669999999975
20
-106.7016890000000018
11
113.3768689999999992
21
-106.8030009999999947
0
LINE
8
BLACK
6
CONTINUOUS
10
113.3768689999999992
20
-106.8030009999999947
11
113.4801889999999958
21
-106.9261029999999977
0
LINE
8
BLACK
6
CONTINUOUS
10
113.4801889999999958
20
-106.9261029999999977
11
113.5610269999999957
21
-107.0660619999999881
0
LINE
8
BLACK
6
CONTINUOUS
10
113.5610269999999957
20
-107.0660619999999881
11
113.6217849999999885
21
-107.2179509999999993
0
LINE
8
BLACK
6
CONTINUOUS
10
113.6217849999999885
20
-107.2179509999999993
11
113.6648619999999994
21
-107.3768389999999897
0
LINE
8
BLACK
6
CONTINUOUS
10
113.6648619999999994
20
-107.3768389999999897
11
113.6926599999999894
21
-107.5377979999999951
0
LINE
8
BLACK
6
CONTINUOUS
10
113.6926599999999894
20
-107.5377979999999951
11
113.707577999999998
21
-107.6958959999999905
0
LINE
8
BLACK
6
CONTINUOUS
10
113.707577999999998
20
-107.6958959999999905
11
113.7120169999999888
21
-107.8462049999999977
0
LINE
8
BLACK
6
CONTINUOUS
10
113.7120169999999888
20
-107.8462049999999977
11
113.707577999999998
21
-107.996342999999996
0
LINE
8
BLACK
6
CONTINUOUS
10
113.707577999999998
20
-107.996342999999996
11
113.6926599999999894
21
-108.1542729999999892
0
LINE
8
BLACK
6
CONTINUOUS
10
113.6926599999999894
20
-108.1542729999999892
11
113.6648619999999994
21
-108.315068999999994
0
LINE
8
BLACK
6
CONTINUOUS
10
113.6648619999999994
20
-108.315068999999994
11
113.6217849999999885
21
-108.4738040000000012
0
LINE
8
BLACK
6
CONTINUOUS
10
113.6217849999999885
20
-108.4738040000000012
11
113.5610269999999957
21
-108.625551999999999
0
LINE
8
BLACK
6
CONTINUOUS
10
113.5610269999999957
20
-108.625551999999999
11
113.4801889999999958
21
-108.7653859999999924
0
LINE
8
BLACK
6
CONTINUOUS
10
113.4801889999999958
20
-108.7653859999999924
11
113.3768689999999992
21
-108.8883790000000005
0
LINE
8
BLACK
6
CONTINUOUS
10
113.3768689999999992
20
-108.8883790000000005
11
113.2486669999999975
21
-108.9896049999999974
0
LINE
8
BLACK
6
CONTINUOUS
10
113.2486669999999975
20
-108.9896049999999974
11
113.0931829999999962
21
-109.0641369999999881
0
LINE
8
BLACK
6
CONTINUOUS
10
113.0931829999999962
20
-109.0641369999999881
11
112.9080149999999918
21
-109.1070489999999893
0
LINE
8
BLACK
6
CONTINUOUS
10
112.9080149999999918
20
-109.1070489999999893
11
112.766894999999991
21
-109.1156569999999988
0
LINE
8
BLACK
6
CONTINUOUS
10
112.766894999999991
20
-109.1156569999999988
11
112.6257820000000009
21
-109.1070489999999893
0
LINE
8
BLACK
6
CONTINUOUS
10
112.6257820000000009
20
-109.1070489999999893
11
112.440652
21
-109.0641369999999881
0
LINE
8
BLACK
6
CONTINUOUS
10
112.440652
20
-109.0641369999999881
11
112.2852299999999985
21
-108.9896049999999974
0
LINE
8
BLACK
6
CONTINUOUS
10
112.2852299999999985
20
-108.9896049999999974
11
112.1571079999999938
21
-108.8883790000000005
0
LINE
8
BLACK
6
CONTINUOUS
10
112.1571079999999938
20
-108.8883790000000005
11
112.0538789999999949
21
-108.7653859999999924
0
LINE
8
BLACK
6
CONTINUOUS
10
112.0538789999999949
20
-108.7653859999999924
11
111.9731359999999967
21
-108.625551999999999
0
LINE
8
BLACK
6
CONTINUOUS
10
111.9731359999999967
20
-108.625551999999999
11
111.912471999999994
21
-108.4738040000000012
0
LINE
8
BLACK
6
CONTINUOUS
10
111.912471999999994
20
-108.4738040000000012
11
111.8694789999999983
21
-108.315068999999994
0
LINE
8
BLACK
6
CONTINUOUS
10
111.8694789999999983
20
-108.315068999999994
11
111.8417509999999879
21
-108.1542729999999892
0
LINE
8
BLACK
6
CONTINUOUS
10
111.8417509999999879
20
-108.1542729999999892
11
111.826878999999991
21
-107.996342999999996
0
LINE
8
BLACK
6
CONTINUOUS
10
111.826878999999991
20
-107.996342999999996
11
111.822457
21
-107.8462049999999977
0
LINE
8
BLACK
6
CONTINUOUS
10
111.822457
20
-107.8462049999999977
11
111.826878999999991
21
-107.6958959999999905
0
LINE
8
BLACK
6
CONTINUOUS
10
111.826878999999991
20
-107.6958959999999905
11
111.8417509999999879
21
-107.5377979999999951
0
LINE
8
BLACK
6
CONTINUOUS
10
111.8417509999999879
20
-107.5377979999999951
11
111.8694789999999983
21
-107.3768389999999897
0
LINE
8
BLACK
6
CONTINUOUS
10
111.8694789999999983
20
-107.3768389999999897
11
111.912471999999994
21
-107.2179509999999993
0
LINE
8
BLACK
6
CONTINUOUS
10
111.912471999999994
20
-107.2179509999999993
11
111.9731359999999967
21
-107.0660619999999881
0
LINE
8
BLACK
6
CONTINUOUS
10
111.9731359999999967
20
-107.0660619999999881
11
112.0538789999999949
21
-106.9261029999999977
0
LINE
8
BLACK
6
CONTINUOUS
10
112.0538789999999949
20
-106.9261029999999977
11
112.1571079999999938
21
-106.8030009999999947
0
LINE
8
BLACK
6
CONTINUOUS
10
112.1571079999999938
20
-106.8030009999999947
11
112.2852299999999985
21
-106.7016890000000018
0
LINE
8
BLACK
6
CONTINUOUS
10
112.2852299999999985
20
-106.7016890000000018
11
112.440652
21
-106.6270939999999996
0
LINE
8
BLACK
6
CONTINUOUS
10
112.440652
20
-106.6270939999999996
11
112.6257820000000009
21
-106.5841470000000015
0
LINE
8
BLACK
6
CONTINUOUS
10
112.6257820000000009
20
-106.5841470000000015
11
112.766894999999991
21
-106.5755319999999955
0
LINE
8
BLACK
6
CONTINUOUS
10
112.766894999999991
20
-106.5755319999999955
11
112.9080149999999918
21
-106.5841470000000015
0
LINE
8
BLACK
6
CONTINUOUS
10
112.6951669999999979
20
-106.8564849999999922
11
112.5376019999999926
21
-106.904451999999992
0
LINE
8
BLACK
6
CONTINUOUS
10
112.5376019999999926
20
-106.904451999999992
11
112.4104739999999936
21
-107.0030900000000003
0
LINE
8
BLACK
6
CONTINUOUS
10
112.4104739999999936
20
-107.0030900000000003
11
112.3301519999999982
21
-107.1165299999999974
0
LINE
8
BLACK
6
CONTINUOUS
10
112.3301519999999982
20
-107.1165299999999974
11
112.2683899999999966
21
-107.2590489999999903
0
LINE
8
BLACK
6
CONTINUOUS
10
112.2683899999999966
20
-107.2590489999999903
11
112.2340039999999988
21
-107.3841269999999923
0
LINE
8
BLACK
6
CONTINUOUS
10
112.2340039999999988
20
-107.3841269999999923
11
112.2096559999999954
21
-107.5240979999999951
0
LINE
8
BLACK
6
CONTINUOUS
10
112.2096559999999954
20
-107.5240979999999951
11
112.1951729999999969
21
-107.678332999999995
0
LINE
8
BLACK
6
CONTINUOUS
10
112.1951729999999969
20
-107.678332999999995
11
112.1903839999999946
21
-107.8462049999999977
0
LINE
8
BLACK
6
CONTINUOUS
10
112.1903839999999946
20
-107.8462049999999977
11
112.1925079999999895
21
-107.9594960000000015
0
LINE
8
BLACK
6
CONTINUOUS
10
112.1925079999999895
20
-107.9594960000000015
11
112.2037399999999963
21
-108.1182109999999881
0
LINE
8
BLACK
6
CONTINUOUS
10
112.2037399999999963
20
-108.1182109999999881
11
112.224780999999993
21
-108.2628969999999953
0
LINE
8
BLACK
6
CONTINUOUS
10
112.224780999999993
20
-108.2628969999999953
11
112.2558019999999885
21
-108.3929239999999936
0
LINE
8
BLACK
6
CONTINUOUS
10
112.2558019999999885
20
-108.3929239999999936
11
112.3129869999999926
21
-108.5424000000000007
0
LINE
8
BLACK
6
CONTINUOUS
10
112.3129869999999926
20
-108.5424000000000007
11
112.3886309999999895
21
-108.6631979999999942
0
LINE
8
BLACK
6
CONTINUOUS
10
112.3886309999999895
20
-108.6631979999999942
11
112.4831429999999983
21
-108.753822999999997
0
LINE
8
BLACK
6
CONTINUOUS
10
112.4831429999999983
20
-108.753822999999997
11
112.628436999999991
21
-108.8223950000000002
0
LINE
8
BLACK
6
CONTINUOUS
10
112.628436999999991
20
-108.8223950000000002
11
112.766894999999991
21
-108.8396630000000016
0
LINE
8
BLACK
6
CONTINUOUS
10
112.766894999999991
20
-108.8396630000000016
11
112.8386229999999983
21
-108.8353149999999943
0
LINE
8
BLACK
6
CONTINUOUS
10
112.8386229999999983
20
-108.8353149999999943
11
112.9961879999999894
21
-108.787352999999996
0
LINE
8
BLACK
6
CONTINUOUS
10
112.9961879999999894
20
-108.787352999999996
11
113.123314999999991
21
-108.6887409999999932
0
LINE
8
BLACK
6
CONTINUOUS
10
113.123314999999991
20
-108.6887409999999932
11
113.203637999999998
21
-108.5753459999999961
0
LINE
8
BLACK
6
CONTINUOUS
10
113.203637999999998
20
-108.5753459999999961
11
113.265398999999988
21
-108.4328989999999919
0
LINE
8
BLACK
6
CONTINUOUS
10
113.265398999999988
20
-108.4328989999999919
11
113.2997859999999974
21
-108.3078989999999919
0
LINE
8
BLACK
6
CONTINUOUS
10
113.2997859999999974
20
-108.3078989999999919
11
113.3241340000000008
21
-108.16802899999999
0
LINE
8
BLACK
6
CONTINUOUS
10
113.3241340000000008
20
-108.16802899999999
11
113.3386160000000018
21
-108.0139209999999963
0
LINE
8
BLACK
6
CONTINUOUS
10
113.3386160000000018
20
-108.0139209999999963
11
113.3434060000000017
21
-107.8462049999999977
0
LINE
8
BLACK
6
CONTINUOUS
10
113.3434060000000017
20
-107.8462049999999977
11
113.3412809999999951
21
-107.7328059999999965
0
LINE
8
BLACK
6
CONTINUOUS
10
113.3412809999999951
20
-107.7328059999999965
11
113.3300489999999883
21
-107.5739559999999955
0
LINE
8
BLACK
6
CONTINUOUS
10
113.3300489999999883
20
-107.5739559999999955
11
113.309008999999989
21
-107.429159999999996
0
LINE
8
BLACK
6
CONTINUOUS
10
113.309008999999989
20
-107.429159999999996
11
113.277986999999996
21
-107.2990479999999991
0
LINE
8
BLACK
6
CONTINUOUS
10
113.277986999999996
20
-107.2990479999999991
11
113.2208019999999919
21
-107.1494909999999976
0
LINE
8
BLACK
6
CONTINUOUS
10
113.2208019999999919
20
-107.1494909999999976
11
113.145157999999995
21
-107.0286419999999907
0
LINE
8
BLACK
6
CONTINUOUS
10
113.145157999999995
20
-107.0286419999999907
11
113.0506469999999979
21
-106.9379899999999992
0
LINE
8
BLACK
6
CONTINUOUS
10
113.0506469999999979
20
-106.9379899999999992
11
112.9053519999999935
21
-106.8694050000000004
0
LINE
8
BLACK
6
CONTINUOUS
10
112.9053519999999935
20
-106.8694050000000004
11
112.766894999999991
21
-106.852136999999999
0
LINE
8
BLACK
6
CONTINUOUS
10
112.766894999999991
20
-106.852136999999999
11
112.6951669999999979
21
-106.8564849999999922
0
LINE
8
BLACK
6
CONTINUOUS
10
106.551794000000001
20
-109.0374999999999943
11
106.1838659999999948
21
-109.0374999999999943
0
LINE
8
BLACK
6
CONTINUOUS
10
106.1838659999999948
20
-109.0374999999999943
11
106.1838659999999948
21
-107.2899419999999964
0
LINE
8
BLACK
6
CONTINUOUS
10
106.1838659999999948
20
-107.2899419999999964
11
105.5403349999999989
21
-107.2899419999999964
0
LINE
8
BLACK
6
CONTINUOUS
10
105.5403349999999989
20
-107.2899419999999964
11
105.5403349999999989
21
-107.044477999999998
0
LINE
8
BLACK
6
CONTINUOUS
10
105.5403349999999989
20
-107.044477999999998
11
105.6211569999999966
21
-107.0391109999999912
0
LINE
8
BLACK
6
CONTINUOUS
10
105.6211569999999966
20
-107.0391109999999912
11
105.765396999999993
21
-107.0255319999999983
0
LINE
8
BLACK
6
CONTINUOUS
10
105.765396999999993
20
-107.0255319999999983
11
105.9159279999999939
21
-106.9978849999999966
0
LINE
8
BLACK
6
CONTINUOUS
10
105.9159279999999939
20
-106.9978849999999966
11
106.0586289999999963
21
-106.9383729999999986
0
LINE
8
BLACK
6
CONTINUOUS
10
106.0586289999999963
20
-106.9383729999999986
11
106.1670189999999963
21
-106.8369239999999962
0
LINE
8
BLACK
6
CONTINUOUS
10
106.1670189999999963
20
-106.8369239999999962
11
106.2365399999999909
21
-106.710259999999991
0
LINE
8
BLACK
6
CONTINUOUS
10
106.2365399999999909
20
-106.710259999999991
11
106.2816609999999997
21
-106.5755319999999955
0
LINE
8
BLACK
6
CONTINUOUS
10
106.2816609999999997
20
-106.5755319999999955
11
106.551794000000001
21
-106.5755319999999955
0
LINE
8
BLACK
6
CONTINUOUS
10
106.551794000000001
20
-106.5755319999999955
11
106.551794000000001
21
-109.0374999999999943
0
LINE
8
BLACK
6
CONTINUOUS
10
109.5807779999999951
20
-106.5763389999999902
11
109.7523520000000019
21
-106.5954319999999882
0
LINE
8
BLACK
6
CONTINUOUS
10
109.7523520000000019
20
-106.5954319999999882
11
109.9108859999999908
21
-106.6390789999999953
0
LINE
8
BLACK
6
CONTINUOUS
10
109.9108859999999908
20
-106.6390789999999953
11
110.0529719999999969
21
-106.7061789999999917
0
LINE
8
BLACK
6
CONTINUOUS
10
110.0529719999999969
20
-106.7061789999999917
11
110.1752049999999912
21
-106.795628999999991
0
LINE
8
BLACK
6
CONTINUOUS
10
110.1752049999999912
20
-106.795628999999991
11
110.2741789999999895
21
-106.9063269999999903
0
LINE
8
BLACK
6
CONTINUOUS
10
110.2741789999999895
20
-106.9063269999999903
11
110.3464869999999962
21
-107.0371719999999982
0
LINE
8
BLACK
6
CONTINUOUS
10
110.3464869999999962
20
-107.0371719999999982
11
110.3887239999999963
21
-107.1870609999999999
0
LINE
8
BLACK
6
CONTINUOUS
10
110.3887239999999963
20
-107.1870609999999999
11
110.398617999999999
21
-107.3113129999999984
0
LINE
8
BLACK
6
CONTINUOUS
10
110.398617999999999
20
-107.3113129999999984
11
110.3838269999999966
21
-107.4653909999999968
0
LINE
8
BLACK
6
CONTINUOUS
10
110.3838269999999966
20
-107.4653909999999968
11
110.341321999999991
21
-107.5986039999999946
0
LINE
8
BLACK
6
CONTINUOUS
10
110.341321999999991
20
-107.5986039999999946
11
110.2739089999999891
21
-107.7140709999999899
0
LINE
8
BLACK
6
CONTINUOUS
10
110.2739089999999891
20
-107.7140709999999899
11
110.184393
21
-107.8149109999999951
0
LINE
8
BLACK
6
CONTINUOUS
10
110.184393
20
-107.8149109999999951
11
110.0755789999999905
21
-107.9042460000000005
0
LINE
8
BLACK
6
CONTINUOUS
10
110.0755789999999905
20
-107.9042460000000005
11
109.9502710000000008
21
-107.9851939999999928
0
LINE
8
BLACK
6
CONTINUOUS
10
109.9502710000000008
20
-107.9851939999999928
11
109.8112749999999949
21
-108.0608759999999933
0
LINE
8
BLACK
6
CONTINUOUS
10
109.8112749999999949
20
-108.0608759999999933
11
109.6613959999999963
21
-108.1344119999999975
0
LINE
8
BLACK
6
CONTINUOUS
10
109.6613959999999963
20
-108.1344119999999975
11
109.3755340000000018
21
-108.2742409999999893
0
LINE
8
BLACK
6
CONTINUOUS
10
109.3755340000000018
20
-108.2742409999999893
11
109.2771379999999937
21
-108.3265540000000016
0
LINE
8
BLACK
6
CONTINUOUS
10
109.2771379999999937
20
-108.3265540000000016
11
109.1446179999999941
21
-108.4131819999999919
0
LINE
8
BLACK
6
CONTINUOUS
10
109.1446179999999941
20
-108.4131819999999919
11
109.0310849999999903
21
-108.5132339999999971
0
LINE
8
BLACK
6
CONTINUOUS
10
109.0310849999999903
20
-108.5132339999999971
11
108.9499359999999939
21
-108.619300999999993
0
LINE
8
BLACK
6
CONTINUOUS
10
108.9499359999999939
20
-108.619300999999993
11
108.9009209999999968
21
-108.7474610000000013
0
LINE
8
BLACK
6
CONTINUOUS
10
108.9009209999999968
20
-108.7474610000000013
11
110.398617999999999
21
-108.7474610000000013
0
LINE
8
BLACK
6
CONTINUOUS
10
110.398617999999999
20
-108.7474610000000013
11
110.398617999999999
21
-109.0374999999999943
0
LINE
8
BLACK
6
CONTINUOUS
10
110.398617999999999
20
-109.0374999999999943
11
108.5131609999999966
21
-109.0374999999999943
0
LINE
8
BLACK
6
CONTINUOUS
10
108.5131609999999966
20
-109.0374999999999943
11
108.5156559999999928
21
-108.990279000000001
0
LINE
8
BLACK
6
CONTINUOUS
10
108.5156559999999928
20
-108.990279000000001
11
108.531337999999991
21
-108.8566989999999919
0
LINE
8
BLACK
6
CONTINUOUS
10
108.531337999999991
20
-108.8566989999999919
11
108.5704789999999917
21
-108.6963700000000017
0
LINE
8
BLACK
6
CONTINUOUS
10
108.5704789999999917
20
-108.6963700000000017
11
108.6290469999999999
21
-108.5546609999999959
0
LINE
8
BLACK
6
CONTINUOUS
10
108.6290469999999999
20
-108.5546609999999959
11
108.7055029999999931
21
-108.4297159999999991
0
LINE
8
BLACK
6
CONTINUOUS
10
108.7055029999999931
20
-108.4297159999999991
11
108.7983069999999941
21
-108.3196839999999952
0
LINE
8
BLACK
6
CONTINUOUS
10
108.7983069999999941
20
-108.3196839999999952
11
108.9059219999999897
21
-108.2227109999999897
0
LINE
8
BLACK
6
CONTINUOUS
10
108.9059219999999897
20
-108.2227109999999897
11
109.0268090000000001
21
-108.136942999999988
0
LINE
8
BLACK
6
CONTINUOUS
10
109.0268090000000001
20
-108.136942999999988
11
109.1594279999999912
21
-108.0605279999999908
0
LINE
8
BLACK
6
CONTINUOUS
10
109.1594279999999912
20
-108.0605279999999908
11
109.5246199999999988
21
-107.8718509999999924
0
LINE
8
BLACK
6
CONTINUOUS
10
109.5246199999999988
20
-107.8718509999999924
11
109.6305689999999942
21
-107.8170829999999967
0
LINE
8
BLACK
6
CONTINUOUS
10
109.6305689999999942
20
-107.8170829999999967
11
109.7499449999999968
21
-107.7503150000000005
0
LINE
8
BLACK
6
CONTINUOUS
10
109.7499449999999968
20
-107.7503150000000005
11
109.8700929999999971
21
-107.6645019999999988
0
LINE
8
BLACK
6
CONTINUOUS
10
109.8700929999999971
20
-107.6645019999999988
11
109.9601589999999902
21
-107.5623749999999887
0
LINE
8
BLACK
6
CONTINUOUS
10
109.9601589999999902
20
-107.5623749999999887
11
110.0149779999999993
21
-107.4332369999999912
0
LINE
8
BLACK
6
CONTINUOUS
10
110.0149779999999993
20
-107.4332369999999912
11
110.0300069999999977
21
-107.297269
0
LINE
8
BLACK
6
CONTINUOUS
10
110.0300069999999977
20
-107.297269
11
110.0231639999999942
21
-107.2218680000000006
0
LINE
8
BLACK
6
CONTINUOUS
10
110.0231639999999942
20
-107.2218680000000006
11
109.9750939999999986
21
-107.0885849999999948
0
LINE
8
BLACK
6
CONTINUOUS
10
109.9750939999999986
20
-107.0885849999999948
11
109.8923739999999896
21
-106.9852259999999973
0
LINE
8
BLACK
6
CONTINUOUS
10
109.8923739999999896
20
-106.9852259999999973
11
109.766217999999995
21
-106.904531999999989
0
LINE
8
BLACK
6
CONTINUOUS
10
109.766217999999995
20
-106.904531999999989
11
109.624416999999994
21
-106.8632239999999882
0
LINE
8
BLACK
6
CONTINUOUS
10
109.624416999999994
20
-106.8632239999999882
11
109.4849549999999994
21
-106.852136999999999
0
LINE
8
BLACK
6
CONTINUOUS
10
109.4849549999999994
20
-106.852136999999999
11
109.4375419999999934
21
-106.8533889999999928
0
LINE
8
BLACK
6
CONTINUOUS
10
109.4375419999999934
20
-106.8533889999999928
11
109.2752459999999957
21
-106.8813159999999982
0
LINE
8
BLACK
6
CONTINUOUS
10
109.2752459999999957
20
-106.8813159999999982
11
109.1272689999999983
21
-106.9582070000000016
0
LINE
8
BLACK
6
CONTINUOUS
10
109.1272689999999983
20
-106.9582070000000016
11
109.029925999999989
21
-107.0668329999999884
0
LINE
8
BLACK
6
CONTINUOUS
10
109.029925999999989
20
-107.0668329999999884
11
108.9721179999999947
21
-107.1912200000000013
0
LINE
8
BLACK
6
CONTINUOUS
10
108.9721179999999947
20
-107.1912200000000013
11
108.9427489999999921
21
-107.3153959999999927
0
LINE
8
BLACK
6
CONTINUOUS
10
108.9427489999999921
20
-107.3153959999999927
11
108.9282769999999942
21
-107.4584689999999938
0
LINE
8
BLACK
6
CONTINUOUS
10
108.9282769999999942
20
-107.4584689999999938
11
108.5836010000000016
21
-107.4584689999999938
0
LINE
8
BLACK
6
CONTINUOUS
10
108.5836010000000016
20
-107.4584689999999938
11
108.585487999999998
21
-107.3853450000000009
0
LINE
8
BLACK
6
CONTINUOUS
10
108.585487999999998
20
-107.3853450000000009
11
108.600024999999988
21
-107.2513139999999936
0
LINE
8
BLACK
6
CONTINUOUS
10
108.600024999999988
20
-107.2513139999999936
11
108.6459649999999897
21
-107.0790489999999977
0
LINE
8
BLACK
6
CONTINUOUS
10
108.6459649999999897
20
-107.0790489999999977
11
108.7164239999999893
21
-106.9385049999999922
0
LINE
8
BLACK
6
CONTINUOUS
10
108.7164239999999893
20
-106.9385049999999922
11
108.8064040000000006
21
-106.8265129999999914
0
LINE
8
BLACK
6
CONTINUOUS
10
108.8064040000000006
20
-106.8265129999999914
11
108.9109100000000012
21
-106.7399020000000007
0
LINE
8
BLACK
6
CONTINUOUS
10
108.9109100000000012
20
-106.7399020000000007
11
109.0642079999999936
21
-106.658424999999994
0
LINE
8
BLACK
6
CONTINUOUS
10
109.0642079999999936
20
-106.658424999999994
11
109.2225979999999907
21
-106.6089219999999926
0
LINE
8
BLACK
6
CONTINUOUS
10
109.2225979999999907
20
-106.6089219999999926
11
109.3742369999999937
21
-106.583880999999991
0
LINE
8
BLACK
6
CONTINUOUS
10
109.3742369999999937
20
-106.583880999999991
11
109.5362459999999913
21
-106.5755319999999955
0
LINE
8
BLACK
6
CONTINUOUS
10
109.5362459999999913
20
-106.5755319999999955
11
109.5807779999999951
21
-106.5763389999999902
0
LINE
8
BLACK
6
CONTINUOUS
10
185.7354609999999866
20
-103.2211269999999956
11
185.8889859999999885
21
-103.2483500000000021
0
LINE
8
BLACK
6
CONTINUOUS
10
185.8889859999999885
20
-103.2483500000000021
11
186.0632959999999798
21
-103.308415999999994
0
LINE
8
BLACK
6
CONTINUOUS
10
186.0632959999999798
20
-103.308415999999994
11
186.2044019999999875
21
-103.3909699999999958
0
LINE
8
BLACK
6
CONTINUOUS
10
186.2044019999999875
20
-103.3909699999999958
11
186.3139679999999885
21
-103.4909119999999945
0
LINE
8
BLACK
6
CONTINUOUS
10
186.3139679999999885
20
-103.4909119999999945
11
186.3936619999999778
21
-103.6031419999999912
0
LINE
8
BLACK
6
CONTINUOUS
10
186.3936619999999778
20
-103.6031419999999912
11
186.4538069999999834
21
-103.7529380000000003
0
LINE
8
BLACK
6
CONTINUOUS
10
186.4538069999999834
20
-103.7529380000000003
11
186.47313299999999
21
-103.9040029999999888
0
LINE
8
BLACK
6
CONTINUOUS
10
186.47313299999999
20
-103.9040029999999888
11
186.4563859999999806
21
-104.0676100000000019
0
LINE
8
BLACK
6
CONTINUOUS
10
186.4563859999999806
20
-104.0676100000000019
11
186.4117119999999943
21
-104.1963250000000016
0
LINE
8
BLACK
6
CONTINUOUS
10
186.4117119999999943
20
-104.1963250000000016
11
186.3329990000000009
21
-104.3116289999999964
0
LINE
8
BLACK
6
CONTINUOUS
10
186.3329990000000009
20
-104.3116289999999964
11
186.2247940000000028
21
-104.4028799999999961
0
LINE
8
BLACK
6
CONTINUOUS
10
186.2247940000000028
20
-104.4028799999999961
11
186.0950449999999989
21
-104.4724530000000016
0
LINE
8
BLACK
6
CONTINUOUS
10
186.0950449999999989
20
-104.4724530000000016
11
186.1992229999999893
21
-104.518503999999993
0
LINE
8
BLACK
6
CONTINUOUS
10
186.1992229999999893
20
-104.518503999999993
11
186.3389640000000043
21
-104.6088369999999941
0
LINE
8
BLACK
6
CONTINUOUS
10
186.3389640000000043
20
-104.6088369999999941
11
186.4409489999999892
21
-104.7114380000000011
0
LINE
8
BLACK
6
CONTINUOUS
10
186.4409489999999892
20
-104.7114380000000011
11
186.5209820000000036
21
-104.8431029999999993
0
LINE
8
BLACK
6
CONTINUOUS
10
186.5209820000000036
20
-104.8431029999999993
11
186.5634909999999991
21
-104.9752199999999931
0
LINE
8
BLACK
6
CONTINUOUS
10
186.5634909999999991
20
-104.9752199999999931
11
186.5779129999999952
21
-105.117401000000001
0
LINE
8
BLACK
6
CONTINUOUS
10
186.5779129999999952
20
-105.117401000000001
11
186.5698589999999797
21
-105.2365059999999914
0
LINE
8
BLACK
6
CONTINUOUS
10
186.5698589999999797
20
-105.2365059999999914
11
186.5335120000000018
21
-105.3907309999999882
0
LINE
8
BLACK
6
CONTINUOUS
10
186.5335120000000018
20
-105.3907309999999882
11
186.4669179999999926
21
-105.5354540000000014
0
LINE
8
BLACK
6
CONTINUOUS
10
186.4669179999999926
20
-105.5354540000000014
11
186.3690009999999972
21
-105.6660229999999956
0
LINE
8
BLACK
6
CONTINUOUS
10
186.3690009999999972
20
-105.6660229999999956
11
186.2386879999999962
21
-105.7777859999999919
0
LINE
8
BLACK
6
CONTINUOUS
10
186.2386879999999962
20
-105.7777859999999919
11
186.0749079999999935
21
-105.8660909999999973
0
LINE
8
BLACK
6
CONTINUOUS
10
186.0749079999999935
20
-105.8660909999999973
11
185.9294629999999984
21
-105.914125999999996
0
LINE
8
BLACK
6
CONTINUOUS
10
185.9294629999999984
20
-105.914125999999996
11
185.7641349999999818
21
-105.9443869999999919
0
LINE
8
BLACK
6
CONTINUOUS
10
185.7641349999999818
20
-105.9443869999999919
11
185.5784709999999791
21
-105.9549099999999981
0
LINE
8
BLACK
6
CONTINUOUS
10
185.5784709999999791
20
-105.9549099999999981
11
185.4520469999999932
21
-105.948560999999998
0
LINE
8
BLACK
6
CONTINUOUS
10
185.4520469999999932
20
-105.948560999999998
11
185.2974920000000054
21
-105.9257049999999936
0
LINE
8
BLACK
6
CONTINUOUS
10
185.2974920000000054
20
-105.9257049999999936
11
185.1531959999999799
21
-105.8886419999999902
0
LINE
8
BLACK
6
CONTINUOUS
10
185.1531959999999799
20
-105.8886419999999902
11
185.0072569999999814
21
-105.8316529999999887
0
LINE
8
BLACK
6
CONTINUOUS
10
185.0072569999999814
20
-105.8316529999999887
11
184.8684569999999781
21
-105.7511379999999974
0
LINE
8
BLACK
6
CONTINUOUS
10
184.8684569999999781
20
-105.7511379999999974
11
184.7476159999999936
21
-105.6459809999999919
0
LINE
8
BLACK
6
CONTINUOUS
10
184.7476159999999936
20
-105.6459809999999919
11
184.6641759999999977
21
-105.5355769999999893
0
LINE
8
BLACK
6
CONTINUOUS
10
184.6641759999999977
20
-105.5355769999999893
11
184.603667999999999
21
-105.4036049999999989
0
LINE
8
BLACK
6
CONTINUOUS
10
184.603667999999999
20
-105.4036049999999989
11
184.5725730000000055
21
-105.2618819999999999
0
LINE
8
BLACK
6
CONTINUOUS
10
184.5725730000000055
20
-105.2618819999999999
11
184.5661889999999801
21
-105.1286119999999897
0
LINE
8
BLACK
6
CONTINUOUS
10
184.5661889999999801
20
-105.1286119999999897
11
184.5658409999999776
21
-105.1213580000000007
0
LINE
8
BLACK
6
CONTINUOUS
10
184.5658409999999776
20
-105.1213580000000007
11
184.5745699999999943
21
-105.0051440000000014
0
LINE
8
BLACK
6
CONTINUOUS
10
184.5745699999999943
20
-105.0051440000000014
11
184.609201999999982
21
-104.8749289999999945
0
LINE
8
BLACK
6
CONTINUOUS
10
184.609201999999982
20
-104.8749289999999945
11
184.6835109999999815
21
-104.7400279999999952
0
LINE
8
BLACK
6
CONTINUOUS
10
184.6835109999999815
20
-104.7400279999999952
11
184.7910320000000013
21
-104.6275409999999937
0
LINE
8
BLACK
6
CONTINUOUS
10
184.7910320000000013
20
-104.6275409999999937
11
184.9290969999999845
21
-104.5365279999999899
0
LINE
8
BLACK
6
CONTINUOUS
10
184.9290969999999845
20
-104.5365279999999899
11
185.0655610000000024
21
-104.4764100000000013
0
LINE
8
BLACK
6
CONTINUOUS
10
185.0655610000000024
20
-104.4764100000000013
11
184.95553799999999
21
-104.4285639999999944
0
LINE
8
BLACK
6
CONTINUOUS
10
184.95553799999999
20
-104.4285639999999944
11
184.8289949999999919
21
-104.33876699999999
0
LINE
8
BLACK
6
CONTINUOUS
10
184.8289949999999919
20
-104.33876699999999
11
184.7369789999999909
21
-104.2239299999999957
0
LINE
8
BLACK
6
CONTINUOUS
10
184.7369789999999909
20
-104.2239299999999957
11
184.682204999999982
21
-104.0857939999999928
0
LINE
8
BLACK
6
CONTINUOUS
10
184.682204999999982
20
-104.0857939999999928
11
184.6669569999999965
21
-103.9501649999999984
0
LINE
8
BLACK
6
CONTINUOUS
10
184.6669569999999965
20
-103.9501649999999984
11
184.6672749999999894
21
-103.9349969999999956
0
LINE
8
BLACK
6
CONTINUOUS
10
184.6672749999999894
20
-103.9349969999999956
11
184.6675209999999936
21
-103.9232709999999997
0
LINE
8
BLACK
6
CONTINUOUS
10
184.6675209999999936
20
-103.9232709999999997
11
184.6890539999999987
21
-103.7774390000000011
0
LINE
8
BLACK
6
CONTINUOUS
10
184.6890539999999987
20
-103.7774390000000011
11
184.7472759999999994
21
-103.623281999999989
0
LINE
8
BLACK
6
CONTINUOUS
10
184.7472759999999994
20
-103.623281999999989
11
184.8253059999999834
21
-103.5036889999999943
0
LINE
8
BLACK
6
CONTINUOUS
10
184.8253059999999834
20
-103.5036889999999943
11
184.935451999999998
21
-103.3954419999999885
0
LINE
8
BLACK
6
CONTINUOUS
10
184.935451999999998
20
-103.3954419999999885
11
185.0815529999999853
21
-103.3059530000000024
0
LINE
8
BLACK
6
CONTINUOUS
10
185.0815529999999853
20
-103.3059530000000024
11
185.217031999999989
21
-103.2556049999999885
0
LINE
8
BLACK
6
CONTINUOUS
10
185.217031999999989
20
-103.2556049999999885
11
185.376513999999986
21
-103.2231029999999947
0
LINE
8
BLACK
6
CONTINUOUS
10
185.376513999999986
20
-103.2231029999999947
11
185.561618999999979
21
-103.2115739999999988
0
LINE
8
BLACK
6
CONTINUOUS
10
185.561618999999979
20
-103.2115739999999988
11
185.7354609999999866
21
-103.2211269999999956
0
LINE
8
BLACK
6
CONTINUOUS
10
185.4586620000000039
20
-104.6449020000000019
11
185.2992679999999837
21
-104.6807900000000018
0
LINE
8
BLACK
6
CONTINUOUS
10
185.2992679999999837
20
-104.6807900000000018
11
185.1494840000000011
21
-104.7589040000000011
0
LINE
8
BLACK
6
CONTINUOUS
10
185.1494840000000011
20
-104.7589040000000011
11
185.0438959999999895
21
-104.8660649999999919
0
LINE
8
BLACK
6
CONTINUOUS
10
185.0438959999999895
20
-104.8660649999999919
11
184.9813719999999932
21
-104.9925439999999952
0
LINE
8
BLACK
6
CONTINUOUS
10
184.9813719999999932
20
-104.9925439999999952
11
184.9607809999999972
21
-105.1286119999999897
0
LINE
8
BLACK
6
CONTINUOUS
10
184.9607809999999972
20
-105.1286119999999897
11
184.9806079999999895
21
-105.277906999999999
0
LINE
8
BLACK
6
CONTINUOUS
10
184.9806079999999895
20
-105.277906999999999
11
185.0377110000000016
21
-105.4099819999999994
0
LINE
8
BLACK
6
CONTINUOUS
10
185.0377110000000016
20
-105.4099819999999994
11
185.1433700000000044
21
-105.5281710000000004
0
LINE
8
BLACK
6
CONTINUOUS
10
185.1433700000000044
20
-105.5281710000000004
11
185.2763929999999846
21
-105.6039759999999887
0
LINE
8
BLACK
6
CONTINUOUS
10
185.2763929999999846
20
-105.6039759999999887
11
185.416799999999995
21
-105.642793999999995
0
LINE
8
BLACK
6
CONTINUOUS
10
185.416799999999995
20
-105.642793999999995
11
185.590927999999991
21
-105.6568359999999984
0
LINE
8
BLACK
6
CONTINUOUS
10
185.590927999999991
20
-105.6568359999999984
11
185.7195119999999804
21
-105.6495419999999967
0
LINE
8
BLACK
6
CONTINUOUS
10
185.7195119999999804
20
-105.6495419999999967
11
185.8721359999999834
21
-105.6162009999999896
0
LINE
8
BLACK
6
CONTINUOUS
10
185.8721359999999834
20
-105.6162009999999896
11
186.0088360000000023
21
-105.5470449999999971
0
LINE
8
BLACK
6
CONTINUOUS
10
186.0088360000000023
20
-105.5470449999999971
11
186.1146870000000035
21
-105.4325539999999961
0
LINE
8
BLACK
6
CONTINUOUS
10
186.1146870000000035
20
-105.4325539999999961
11
186.1685629999999776
21
-105.2956459999999907
0
LINE
8
BLACK
6
CONTINUOUS
10
186.1685629999999776
20
-105.2956459999999907
11
186.1829719999999782
21
-105.154989999999998
0
LINE
8
BLACK
6
CONTINUOUS
10
186.1829719999999782
20
-105.154989999999998
11
186.1704139999999938
21
-105.0299940000000021
0
LINE
8
BLACK
6
CONTINUOUS
10
186.1704139999999938
20
-105.0299940000000021
11
186.1220869999999934
21
-104.8993490000000008
0
LINE
8
BLACK
6
CONTINUOUS
10
186.1220869999999934
20
-104.8993490000000008
11
186.0228129999999851
21
-104.7788690000000003
0
LINE
8
BLACK
6
CONTINUOUS
10
186.0228129999999851
20
-104.7788690000000003
11
185.8866319999999916
21
-104.6964289999999949
0
LINE
8
BLACK
6
CONTINUOUS
10
185.8866319999999916
20
-104.6964289999999949
11
185.7221529999999916
21
-104.6503869999999949
0
LINE
8
BLACK
6
CONTINUOUS
10
185.7221529999999916
20
-104.6503869999999949
11
185.5696789999999794
21
-104.6386359999999911
0
LINE
8
BLACK
6
CONTINUOUS
10
185.5696789999999794
20
-104.6386359999999911
11
185.4586620000000039
21
-104.6449020000000019
0
LINE
8
BLACK
6
CONTINUOUS
10
185.4058839999999861
20
-103.5214419999999933
11
185.2515029999999854
21
-103.5738739999999893
0
LINE
8
BLACK
6
CONTINUOUS
10
185.2515029999999854
20
-103.5738739999999893
11
185.1336189999999817
21
-103.6736999999999966
0
LINE
8
BLACK
6
CONTINUOUS
10
185.1336189999999817
20
-103.6736999999999966
11
185.0706099999999878
21
-103.795470999999992
0
LINE
8
BLACK
6
CONTINUOUS
10
185.0706099999999878
20
-103.795470999999992
11
185.0494410000000016
21
-103.9349969999999956
0
LINE
8
BLACK
6
CONTINUOUS
10
185.0494410000000016
20
-103.9349969999999956
11
185.0667169999999828
21
-104.0485659999999939
0
LINE
8
BLACK
6
CONTINUOUS
10
185.0667169999999828
20
-104.0485659999999939
11
185.1419839999999795
21
-104.1802599999999899
0
LINE
8
BLACK
6
CONTINUOUS
10
185.1419839999999795
20
-104.1802599999999899
11
185.2639800000000037
21
-104.2768809999999888
0
LINE
8
BLACK
6
CONTINUOUS
10
185.2639800000000037
20
-104.2768809999999888
11
185.4184860000000015
21
-104.3348649999999935
0
LINE
8
BLACK
6
CONTINUOUS
10
185.4184860000000015
20
-104.3348649999999935
11
185.5660149999999931
21
-104.3511139999999955
0
LINE
8
BLACK
6
CONTINUOUS
10
185.5660149999999931
20
-104.3511139999999955
11
185.7327899999999943
21
-104.3320779999999957
0
LINE
8
BLACK
6
CONTINUOUS
10
185.7327899999999943
20
-104.3320779999999957
11
185.8720819999999776
21
-104.2783969999999982
0
LINE
8
BLACK
6
CONTINUOUS
10
185.8720819999999776
20
-104.2783969999999982
11
185.9949450000000013
21
-104.1788359999999898
0
LINE
8
BLACK
6
CONTINUOUS
10
185.9949450000000013
20
-104.1788359999999898
11
186.0695460000000026
21
-104.047270999999995
0
LINE
8
BLACK
6
CONTINUOUS
10
186.0695460000000026
20
-104.047270999999995
11
186.0906489999999849
21
-103.9152129999999943
0
LINE
8
BLACK
6
CONTINUOUS
10
186.0906489999999849
20
-103.9152129999999943
11
186.0892259999999965
21
-103.883388999999994
0
LINE
8
BLACK
6
CONTINUOUS
10
186.0892259999999965
20
-103.883388999999994
11
186.0502419999999972
21
-103.7479560000000021
0
LINE
8
BLACK
6
CONTINUOUS
10
186.0502419999999972
20
-103.7479560000000021
11
185.9616149999999948
21
-103.6358409999999992
0
LINE
8
BLACK
6
CONTINUOUS
10
185.9616149999999948
20
-103.6358409999999992
11
185.8352249999999799
21
-103.5601449999999915
0
LINE
8
BLACK
6
CONTINUOUS
10
185.8352249999999799
20
-103.5601449999999915
11
185.6883449999999982
21
-103.5209169999999972
0
LINE
8
BLACK
6
CONTINUOUS
10
185.6883449999999982
20
-103.5209169999999972
11
185.5403699999999958
21
-103.5103079999999949
0
LINE
8
BLACK
6
CONTINUOUS
10
185.5403699999999958
20
-103.5103079999999949
11
185.4058839999999861
21
-103.5214419999999933
0
LINE
8
BLACK
6
CONTINUOUS
10
188.6324840000000052
20
-104.4790479999999917
11
190.0942770000000053
21
-103.169368999999989
0
LINE
8
BLACK
6
CONTINUOUS
10
190.0942770000000053
20
-103.169368999999989
11
190.6570129999999779
21
-103.169368999999989
0
LINE
8
BLACK
6
CONTINUOUS
10
190.6570129999999779
20
-103.169368999999989
11
189.4011160000000018
21
-104.2607679999999988
0
LINE
8
BLACK
6
CONTINUOUS
10
189.4011160000000018
20
-104.2607679999999988
11
190.6907180000000039
21
-105.8704999999999927
0
LINE
8
BLACK
6
CONTINUOUS
10
190.6907180000000039
20
-105.8704999999999927
11
190.1616879999999981
21
-105.8704999999999927
0
LINE
8
BLACK
6
CONTINUOUS
10
190.1616879999999981
20
-105.8704999999999927
11
189.1072920000000011
21
-104.5166369999999887
0
LINE
8
BLACK
6
CONTINUOUS
10
189.1072920000000011
20
-104.5166369999999887
11
188.6324840000000052
21
-104.922861999999995
0
LINE
8
BLACK
6
CONTINUOUS
10
188.6324840000000052
20
-104.922861999999995
11
188.6324840000000052
21
-105.8704999999999927
0
LINE
8
BLACK
6
CONTINUOUS
10
188.6324840000000052
20
-105.8704999999999927
11
188.225087000000002
21
-105.8704999999999927
0
LINE
8
BLACK
6
CONTINUOUS
10
188.225087000000002
20
-105.8704999999999927
11
188.225087000000002
21
-103.169368999999989
0
LINE
8
BLACK
6
CONTINUOUS
10
188.225087000000002
20
-103.169368999999989
11
188.6324840000000052
21
-103.169368999999989
0
LINE
8
BLACK
6
CONTINUOUS
10
188.6324840000000052
20
-103.169368999999989
11
188.6324840000000052
21
-104.4790479999999917
0
LINE
8
BLACK
6
CONTINUOUS
10
194.7783429999999782
20
-103.1729839999999996
11
194.9637039999999786
21
-103.2007539999999892
0
LINE
8
BLACK
6
CONTINUOUS
10
194.9637039999999786
20
-103.2007539999999892
11
195.1232009999999946
21
-103.2533629999999931
0
LINE
8
BLACK
6
CONTINUOUS
10
195.1232009999999946
20
-103.2533629999999931
11
195.2566290000000038
21
-103.3277479999999997
0
LINE
8
BLACK
6
CONTINUOUS
10
195.2566290000000038
20
-103.3277479999999997
11
195.3637819999999863
21
-103.4208519999999965
0
LINE
8
BLACK
6
CONTINUOUS
10
195.3637819999999863
20
-103.4208519999999965
11
195.4604599999999834
21
-103.5588889999999935
0
LINE
8
BLACK
6
CONTINUOUS
10
195.4604599999999834
20
-103.5588889999999935
11
195.515357999999992
21
-103.7154139999999956
0
LINE
8
BLACK
6
CONTINUOUS
10
195.515357999999992
20
-103.7154139999999956
11
195.5289249999999868
21
-103.8499269999999939
0
LINE
8
BLACK
6
CONTINUOUS
10
195.5289249999999868
20
-103.8499269999999939
11
195.5125299999999982
21
-103.9920499999999919
0
LINE
8
BLACK
6
CONTINUOUS
10
195.5125299999999982
20
-103.9920499999999919
11
195.462270999999987
21
-104.1251460000000009
0
LINE
8
BLACK
6
CONTINUOUS
10
195.462270999999987
20
-104.1251460000000009
11
195.383135999999979
21
-104.2367849999999976
0
LINE
8
BLACK
6
CONTINUOUS
10
195.383135999999979
20
-104.2367849999999976
11
195.2628890000000013
21
-104.3387089999999944
0
LINE
8
BLACK
6
CONTINUOUS
10
195.2628890000000013
20
-104.3387089999999944
11
195.1259239999999977
21
-104.4111240000000009
0
LINE
8
BLACK
6
CONTINUOUS
10
195.1259239999999977
20
-104.4111240000000009
11
195.1448319999999796
21
-104.4180259999999976
0
LINE
8
BLACK
6
CONTINUOUS
10
195.1448319999999796
20
-104.4180259999999976
11
195.2943719999999814
21
-104.4793979999999891
0
LINE
8
BLACK
6
CONTINUOUS
10
195.2943719999999814
20
-104.4793979999999891
11
195.4298100000000034
21
-104.5597279999999927
0
LINE
8
BLACK
6
CONTINUOUS
10
195.4298100000000034
20
-104.5597279999999927
11
195.5326749999999834
21
-104.6548659999999984
0
LINE
8
BLACK
6
CONTINUOUS
10
195.5326749999999834
20
-104.6548659999999984
11
195.6142309999999895
21
-104.7826239999999984
0
LINE
8
BLACK
6
CONTINUOUS
10
195.6142309999999895
20
-104.7826239999999984
11
195.6564359999999851
21
-104.9127199999999931
0
LINE
8
BLACK
6
CONTINUOUS
10
195.6564359999999851
20
-104.9127199999999931
11
195.6718070000000012
21
-105.0712389999999914
0
LINE
8
BLACK
6
CONTINUOUS
10
195.6718070000000012
20
-105.0712389999999914
11
195.6624180000000024
21
-105.1910749999999979
0
LINE
8
BLACK
6
CONTINUOUS
10
195.6624180000000024
20
-105.1910749999999979
11
195.6209749999999872
21
-105.3427849999999921
0
LINE
8
BLACK
6
CONTINUOUS
10
195.6209749999999872
20
-105.3427849999999921
11
195.5469849999999781
21
-105.4820619999999991
0
LINE
8
BLACK
6
CONTINUOUS
10
195.5469849999999781
20
-105.4820619999999991
11
195.4410089999999798
21
-105.6054060000000021
0
LINE
8
BLACK
6
CONTINUOUS
10
195.4410089999999798
20
-105.6054060000000021
11
195.3036029999999812
21
-105.7093169999999986
0
LINE
8
BLACK
6
CONTINUOUS
10
195.3036029999999812
20
-105.7093169999999986
11
195.1353249999999946
21
-105.7902919999999938
0
LINE
8
BLACK
6
CONTINUOUS
10
195.1353249999999946
20
-105.7902919999999938
11
194.9891939999999977
21
-105.8338669999999979
0
LINE
8
BLACK
6
CONTINUOUS
10
194.9891939999999977
20
-105.8338669999999979
11
194.8262469999999951
21
-105.8610949999999917
0
LINE
8
BLACK
6
CONTINUOUS
10
194.8262469999999951
20
-105.8610949999999917
11
194.6467199999999877
21
-105.8704999999999927
0
LINE
8
BLACK
6
CONTINUOUS
10
194.6467199999999877
20
-105.8704999999999927
11
193.3490579999999852
21
-105.8704999999999927
0
LINE
8
BLACK
6
CONTINUOUS
10
193.3490579999999852
20
-105.8704999999999927
11
193.3490579999999852
21
-105.5572579999999903
0
LINE
8
BLACK
6
CONTINUOUS
10
193.3490579999999852
20
-105.5572579999999903
11
193.3490579999999852
21
-104.3089079999999882
0
LINE
8
BLACK
6
CONTINUOUS
10
193.3490579999999852
20
-104.3089079999999882
11
193.3490579999999852
21
-103.169368999999989
0
LINE
8
BLACK
6
CONTINUOUS
10
193.3490579999999852
20
-103.169368999999989
11
194.6760289999999998
21
-103.169368999999989
0
LINE
8
BLACK
6
CONTINUOUS
10
194.6760289999999998
20
-103.169368999999989
11
194.7783429999999782
21
-103.1729839999999996
0
LINE
8
BLACK
6
CONTINUOUS
10
193.7564549999999883
20
-105.5572579999999903
11
194.6254710000000046
21
-105.5572579999999903
0
LINE
8
BLACK
6
CONTINUOUS
10
194.6254710000000046
20
-105.5572579999999903
11
194.7747310000000027
21
-105.5483949999999993
0
LINE
8
BLACK
6
CONTINUOUS
10
194.7747310000000027
20
-105.5483949999999993
11
194.9335879999999861
21
-105.5134259999999955
0
LINE
8
BLACK
6
CONTINUOUS
10
194.9335879999999861
20
-105.5134259999999955
11
195.0834059999999965
21
-105.4389520000000005
0
LINE
8
BLACK
6
CONTINUOUS
10
195.0834059999999965
20
-105.4389520000000005
11
195.1885130000000004
21
-105.3321409999999929
0
LINE
8
BLACK
6
CONTINUOUS
10
195.1885130000000004
20
-105.3321409999999929
11
195.2487050000000011
21
-105.1963049999999953
0
LINE
8
BLACK
6
CONTINUOUS
10
195.2487050000000011
20
-105.1963049999999953
11
195.264409999999998
21
-105.0633259999999893
0
LINE
8
BLACK
6
CONTINUOUS
10
195.264409999999998
20
-105.0633259999999893
11
195.2385799999999847
21
-104.9066689999999937
0
LINE
8
BLACK
6
CONTINUOUS
10
195.2385799999999847
20
-104.9066689999999937
11
195.1486439999999902
21
-104.7701099999999883
0
LINE
8
BLACK
6
CONTINUOUS
10
195.1486439999999902
20
-104.7701099999999883
11
195.0100129999999865
21
-104.6811329999999884
0
LINE
8
BLACK
6
CONTINUOUS
10
195.0100129999999865
20
-104.6811329999999884
11
194.8692059999999913
21
-104.6368229999999926
0
LINE
8
BLACK
6
CONTINUOUS
10
194.8692059999999913
20
-104.6368229999999926
11
194.715611999999993
21
-104.6140669999999915
0
LINE
8
BLACK
6
CONTINUOUS
10
194.715611999999993
20
-104.6140669999999915
11
194.5587919999999826
21
-104.6076419999999985
0
LINE
8
BLACK
6
CONTINUOUS
10
194.5587919999999826
20
-104.6076419999999985
11
193.7564549999999883
21
-104.6076419999999985
0
LINE
8
BLACK
6
CONTINUOUS
10
193.7564549999999883
20
-104.6076419999999985
11
193.7564549999999883
21
-105.5572579999999903
0
LINE
8
BLACK
6
CONTINUOUS
10
193.7564549999999883
20
-104.3089079999999882
11
194.4913809999999899
21
-104.3089079999999882
0
LINE
8
BLACK
6
CONTINUOUS
10
194.4913809999999899
20
-104.3089079999999882
11
194.5971689999999796
21
-104.3060619999999972
0
LINE
8
BLACK
6
CONTINUOUS
10
194.5971689999999796
20
-104.3060619999999972
11
194.754603000000003
21
-104.2874860000000012
0
LINE
8
BLACK
6
CONTINUOUS
10
194.754603000000003
20
-104.2874860000000012
11
194.9098730000000046
21
-104.2389719999999897
0
LINE
8
BLACK
6
CONTINUOUS
10
194.9098730000000046
20
-104.2389719999999897
11
195.0401919999999905
21
-104.1401839999999908
0
LINE
8
BLACK
6
CONTINUOUS
10
195.0401919999999905
20
-104.1401839999999908
11
195.1043169999999805
21
-104.0138869999999969
0
LINE
8
BLACK
6
CONTINUOUS
10
195.1043169999999805
20
-104.0138869999999969
11
195.1215279999999836
21
-103.875645999999989
0
LINE
8
BLACK
6
CONTINUOUS
10
195.1215279999999836
20
-103.875645999999989
11
195.116897999999992
21
-103.8082149999999899
0
LINE
8
BLACK
6
CONTINUOUS
10
195.116897999999992
20
-103.8082149999999899
11
195.0677499999999895
21
-103.6738909999999976
0
LINE
8
BLACK
6
CONTINUOUS
10
195.0677499999999895
20
-103.6738909999999976
11
194.9593679999999836
21
-103.5735650000000021
0
LINE
8
BLACK
6
CONTINUOUS
10
194.9593679999999836
20
-103.5735650000000021
11
194.8141269999999849
21
-103.5162949999999995
0
LINE
8
BLACK
6
CONTINUOUS
10
194.8141269999999849
20
-103.5162949999999995
11
194.6528869999999927
21
-103.489879000000002
0
LINE
8
BLACK
6
CONTINUOUS
10
194.6528869999999927
20
-103.489879000000002
11
194.4957780000000014
21
-103.4832699999999903
0
LINE
8
BLACK
6
CONTINUOUS
10
194.4957780000000014
20
-103.4832699999999903
11
193.7564549999999883
21
-103.4832699999999903
0
LINE
8
BLACK
6
CONTINUOUS
10
193.7564549999999883
20
-103.4832699999999903
11
193.7564549999999883
21
-104.3089079999999882
0
LINE
8
BLACK
6
CONTINUOUS
10
197.2354499999999859
20
-104.4678369999999887
11
198.1008019999999874
21
-103.169368999999989
0
LINE
8
BLACK
6
CONTINUOUS
10
198.1008019999999874
20
-103.169368999999989
11
198.5800069999999948
21
-103.169368999999989
0
LINE
8
BLACK
6
CONTINUOUS
10
198.5800069999999948
20
-103.169368999999989
11
197.4413469999999791
21
-104.7837169999999958
0
LINE
8
BLACK
6
CONTINUOUS
10
197.4413469999999791
20
-104.7837169999999958
11
197.4413469999999791
21
-105.8704999999999927
0
LINE
8
BLACK
6
CONTINUOUS
10
197.4413469999999791
20
-105.8704999999999927
11
197.0339489999999785
21
-105.8704999999999927
0
LINE
8
BLACK
6
CONTINUOUS
10
197.0339489999999785
20
-105.8704999999999927
11
197.0339489999999785
21
-104.7837169999999958
0
LINE
8
BLACK
6
CONTINUOUS
10
197.0339489999999785
20
-104.7837169999999958
11
195.8960219999999879
21
-103.169368999999989
0
LINE
8
BLACK
6
CONTINUOUS
10
195.8960219999999879
20
-103.169368999999989
11
196.3708299999999838
21
-103.169368999999989
0
LINE
8
BLACK
6
CONTINUOUS
10
196.3708299999999838
20
-103.169368999999989
11
197.2354499999999859
21
-104.4678369999999887
0
LINE
8
BLACK
6
CONTINUOUS
10
201.1438239999999951
20
-103.4944809999999933
11
200.1231329999999957
21
-103.4944809999999933
0
LINE
8
BLACK
6
CONTINUOUS
10
200.1231329999999957
20
-103.4944809999999933
11
200.1231329999999957
21
-105.8704999999999927
0
LINE
8
BLACK
6
CONTINUOUS
10
200.1231329999999957
20
-105.8704999999999927
11
199.7157359999999926
21
-105.8704999999999927
0
LINE
8
BLACK
6
CONTINUOUS
10
199.7157359999999926
20
-105.8704999999999927
11
199.7157359999999926
21
-103.4944809999999933
0
LINE
8
BLACK
6
CONTINUOUS
10
199.7157359999999926
20
-103.4944809999999933
11
198.6950449999999933
21
-103.4944809999999933
0
LINE
8
BLACK
6
CONTINUOUS
10
198.6950449999999933
20
-103.4944809999999933
11
198.6950449999999933
21
-103.169368999999989
0
LINE
8
BLACK
6
CONTINUOUS
10
198.6950449999999933
20
-103.169368999999989
11
201.1438239999999951
21
-103.169368999999989
0
LINE
8
BLACK
6
CONTINUOUS
10
201.1438239999999951
20
-103.169368999999989
11
201.1438239999999951
21
-103.4944809999999933
0
LINE
8
BLACK
6
CONTINUOUS
10
203.7589319999999873
20
-103.4944809999999933
11
201.9696089999999913
21
-103.4944809999999933
0
LINE
8
BLACK
6
CONTINUOUS
10
201.9696089999999913
20
-103.4944809999999933
11
201.9696089999999913
21
-104.3220979999999969
0
LINE
8
BLACK
6
CONTINUOUS
10
201.9696089999999913
20
-104.3220979999999969
11
203.6197139999999877
21
-104.3220979999999969
0
LINE
8
BLACK
6
CONTINUOUS
10
203.6197139999999877
20
-104.3220979999999969
11
203.6197139999999877
21
-104.6465499999999906
0
LINE
8
BLACK
6
CONTINUOUS
10
203.6197139999999877
20
-104.6465499999999906
11
201.9696089999999913
21
-104.6465499999999906
0
LINE
8
BLACK
6
CONTINUOUS
10
201.9696089999999913
20
-104.6465499999999906
11
201.9696089999999913
21
-105.5460470000000015
0
LINE
8
BLACK
6
CONTINUOUS
10
201.9696089999999913
20
-105.5460470000000015
11
203.7882409999999993
21
-105.5460470000000015
0
LINE
8
BLACK
6
CONTINUOUS
10
203.7882409999999993
20
-105.5460470000000015
11
203.7882409999999993
21
-105.8704999999999927
0
LINE
8
BLACK
6
CONTINUOUS
10
203.7882409999999993
20
-105.8704999999999927
11
201.5614789999999914
21
-105.8704999999999927
0
LINE
8
BLACK
6
CONTINUOUS
10
201.5614789999999914
20
-105.8704999999999927
11
201.5614789999999914
21
-103.169368999999989
0
LINE
8
BLACK
6
CONTINUOUS
10
201.5614789999999914
20
-103.169368999999989
11
203.7589319999999873
21
-103.169368999999989
0
LINE
8
BLACK
6
CONTINUOUS
10
203.7589319999999873
20
-103.169368999999989
11
203.7589319999999873
21
-103.4944809999999933
0
LINE
8
BLACK
6
CONTINUOUS
10
108.0775719999999893
20
-103.8964029999999923
11
108.1943749999999937
21
-103.9149769999999933
0
LINE
8
BLACK
6
CONTINUOUS
10
108.1943749999999937
20
-103.9149769999999933
11
108.300383999999994
21
-103.9446169999999938
0
LINE
8
BLACK
6
CONTINUOUS
10
108.300383999999994
20
-103.9446169999999938
11
108.3960049999999882
21
-103.9842469999999963
0
LINE
8
BLACK
6
CONTINUOUS
10
108.3960049999999882
20
-103.9842469999999963
11
108.4816439999999886
21
-104.0327899999999914
0
LINE
8
BLACK
6
CONTINUOUS
10
108.4816439999999886
20
-104.0327899999999914
11
108.5577069999999935
21
-104.0891689999999983
0
LINE
8
BLACK
6
CONTINUOUS
10
108.5577069999999935
20
-104.0891689999999983
11
108.6246009999999984
21
-104.1523079999999908
0
LINE
8
BLACK
6
CONTINUOUS
10
108.6246009999999984
20
-104.1523079999999908
11
108.7086339999999893
21
-104.2573340000000002
0
LINE
8
BLACK
6
CONTINUOUS
10
108.7086339999999893
20
-104.2573340000000002
11
108.7743169999999964
21
-104.3715119999999956
0
LINE
8
BLACK
6
CONTINUOUS
10
108.7743169999999964
20
-104.3715119999999956
11
108.8230199999999996
21
-104.4912080000000003
0
LINE
8
BLACK
6
CONTINUOUS
10
108.8230199999999996
20
-104.4912080000000003
11
108.856111999999996
21
-104.6127879999999948
0
LINE
8
BLACK
6
CONTINUOUS
10
108.856111999999996
20
-104.6127879999999948
11
108.8749619999999965
21
-104.7326169999999905
0
LINE
8
BLACK
6
CONTINUOUS
10
108.8749619999999965
20
-104.7326169999999905
11
108.8809419999999903
21
-104.847061999999994
0
LINE
8
BLACK
6
CONTINUOUS
10
108.8809419999999903
20
-104.847061999999994
11
108.8802939999999921
21
-104.8843469999999911
0
LINE
8
BLACK
6
CONTINUOUS
10
108.8802939999999921
20
-104.8843469999999911
11
108.8701769999999982
21
-105.0008669999999995
0
LINE
8
BLACK
6
CONTINUOUS
10
108.8701769999999982
20
-105.0008669999999995
11
108.8467309999999912
21
-105.1215639999999922
0
LINE
8
BLACK
6
CONTINUOUS
10
108.8467309999999912
20
-105.1215639999999922
11
108.8085880000000003
21
-105.2428049999999899
0
LINE
8
BLACK
6
CONTINUOUS
10
108.8085880000000003
20
-105.2428049999999899
11
108.754376999999991
21
-105.3609579999999966
0
LINE
8
BLACK
6
CONTINUOUS
10
108.754376999999991
20
-105.3609579999999966
11
108.6827289999999948
21
-105.4723910000000018
0
LINE
8
BLACK
6
CONTINUOUS
10
108.6827289999999948
20
-105.4723910000000018
11
108.6246009999999984
21
-105.5411529999999942
0
LINE
8
BLACK
6
CONTINUOUS
10
108.6246009999999984
20
-105.5411529999999942
11
108.5577069999999935
21
-105.6042389999999926
0
LINE
8
BLACK
6
CONTINUOUS
10
108.5577069999999935
20
-105.6042389999999926
11
108.4816439999999886
21
-105.6605709999999902
0
LINE
8
BLACK
6
CONTINUOUS
10
108.4816439999999886
20
-105.6605709999999902
11
108.3960049999999882
21
-105.7090740000000011
0
LINE
8
BLACK
6
CONTINUOUS
10
108.3960049999999882
20
-105.7090740000000011
11
108.300383999999994
21
-105.7486719999999991
0
LINE
8
BLACK
6
CONTINUOUS
10
108.300383999999994
20
-105.7486719999999991
11
108.1943749999999937
21
-105.7782879999999892
0
LINE
8
BLACK
6
CONTINUOUS
10
108.1943749999999937
20
-105.7782879999999892
11
108.0775719999999893
21
-105.7968479999999971
0
LINE
8
BLACK
6
CONTINUOUS
10
108.0775719999999893
20
-105.7968479999999971
11
107.9495699999999943
21
-105.8032729999999901
0
LINE
8
BLACK
6
CONTINUOUS
10
107.9495699999999943
20
-105.8032729999999901
11
107.8216499999999911
21
-105.7968479999999971
0
LINE
8
BLACK
6
CONTINUOUS
10
107.8216499999999911
20
-105.7968479999999971
11
107.7049189999999896
21
-105.7782879999999892
0
LINE
8
BLACK
6
CONTINUOUS
10
107.7049189999999896
20
-105.7782879999999892
11
107.5989719999999892
21
-105.7486719999999991
0
LINE
8
BLACK
6
CONTINUOUS
10
107.5989719999999892
20
-105.7486719999999991
11
107.5034039999999891
21
-105.7090740000000011
0
LINE
8
BLACK
6
CONTINUOUS
10
107.5034039999999891
20
-105.7090740000000011
11
107.4178099999999887
21
-105.6605709999999902
0
LINE
8
BLACK
6
CONTINUOUS
10
107.4178099999999887
20
-105.6605709999999902
11
107.3417839999999899
21
-105.6042389999999926
0
LINE
8
BLACK
6
CONTINUOUS
10
107.3417839999999899
20
-105.6042389999999926
11
107.2749219999999895
21
-105.5411529999999942
0
LINE
8
BLACK
6
CONTINUOUS
10
107.2749219999999895
20
-105.5411529999999942
11
107.190922999999998
21
-105.4362179999999967
0
LINE
8
BLACK
6
CONTINUOUS
10
107.190922999999998
20
-105.4362179999999967
11
107.1252629999999897
21
-105.322141000000002
0
LINE
8
BLACK
6
CONTINUOUS
10
107.1252629999999897
20
-105.322141000000002
11
107.0765749999999912
21
-105.2025549999999896
0
LINE
8
BLACK
6
CONTINUOUS
10
107.0765749999999912
20
-105.2025549999999896
11
107.0434899999999914
21
-105.0810919999999982
0
LINE
8
BLACK
6
CONTINUOUS
10
107.0434899999999914
20
-105.0810919999999982
11
107.0246420000000001
21
-104.9613839999999954
0
LINE
8
BLACK
6
CONTINUOUS
10
107.0246420000000001
20
-104.9613839999999954
11
107.0186629999999894
21
-104.847061999999994
0
LINE
8
BLACK
6
CONTINUOUS
10
107.0186629999999894
20
-104.847061999999994
11
107.0193110000000019
21
-104.8097369999999984
0
LINE
8
BLACK
6
CONTINUOUS
10
107.0193110000000019
20
-104.8097369999999984
11
107.0294269999999983
21
-104.6930929999999904
0
LINE
8
BLACK
6
CONTINUOUS
10
107.0294269999999983
20
-104.6930929999999904
11
107.0528690000000012
21
-104.5722769999999997
0
LINE
8
BLACK
6
CONTINUOUS
10
107.0528690000000012
20
-104.5722769999999997
11
107.0910030000000006
21
-104.4509209999999939
0
LINE
8
BLACK
6
CONTINUOUS
10
107.0910030000000006
20
-104.4509209999999939
11
107.145196999999996
21
-104.33265999999999
0
LINE
8
BLACK
6
CONTINUOUS
10
107.145196999999996
20
-104.33265999999999
11
107.2168169999999918
21
-104.2211289999999906
0
LINE
8
BLACK
6
CONTINUOUS
10
107.2168169999999918
20
-104.2211289999999906
11
107.2749219999999895
21
-104.1523079999999908
0
LINE
8
BLACK
6
CONTINUOUS
10
107.2749219999999895
20
-104.1523079999999908
11
107.3417839999999899
21
-104.0891689999999983
0
LINE
8
BLACK
6
CONTINUOUS
10
107.3417839999999899
20
-104.0891689999999983
11
107.4178099999999887
21
-104.0327899999999914
0
LINE
8
BLACK
6
CONTINUOUS
10
107.4178099999999887
20
-104.0327899999999914
11
107.5034039999999891
21
-103.9842469999999963
0
LINE
8
BLACK
6
CONTINUOUS
10
107.5034039999999891
20
-103.9842469999999963
11
107.5989719999999892
21
-103.9446169999999938
0
LINE
8
BLACK
6
CONTINUOUS
10
107.5989719999999892
20
-103.9446169999999938
11
107.7049189999999896
21
-103.9149769999999933
0
LINE
8
BLACK
6
CONTINUOUS
10
107.7049189999999896
20
-103.9149769999999933
11
107.8216499999999911
21
-103.8964029999999923
0
LINE
8
BLACK
6
CONTINUOUS
10
107.8216499999999911
20
-103.8964029999999923
11
107.9495699999999943
21
-103.8899720000000002
0
LINE
8
BLACK
6
CONTINUOUS
10
107.9495699999999943
20
-103.8899720000000002
11
108.0775719999999893
21
-103.8964029999999923
0
LINE
8
BLACK
6
CONTINUOUS
10
107.8737339999999989
20
-104.1103189999999898
11
107.7674909999999926
21
-104.1287999999999982
0
LINE
8
BLACK
6
CONTINUOUS
10
107.7674909999999926
20
-104.1287999999999982
11
107.6706409999999892
21
-104.162115
0
LINE
8
BLACK
6
CONTINUOUS
10
107.6706409999999892
20
-104.162115
11
107.5836029999999965
21
-104.2092990000000015
0
LINE
8
BLACK
6
CONTINUOUS
10
107.5836029999999965
20
-104.2092990000000015
11
107.5068009999999958
21
-104.2693900000000014
0
LINE
8
BLACK
6
CONTINUOUS
10
107.5068009999999958
20
-104.2693900000000014
11
107.4406559999999899
21
-104.341425000000001
0
LINE
8
BLACK
6
CONTINUOUS
10
107.4406559999999899
20
-104.341425000000001
11
107.3855909999999909
21
-104.4244410000000016
0
LINE
8
BLACK
6
CONTINUOUS
10
107.3855909999999909
20
-104.4244410000000016
11
107.3420279999999991
21
-104.517476000000002
0
LINE
8
BLACK
6
CONTINUOUS
10
107.3420279999999991
20
-104.517476000000002
11
107.310387999999989
21
-104.6195669999999893
0
LINE
8
BLACK
6
CONTINUOUS
10
107.310387999999989
20
-104.6195669999999893
11
107.2910949999999985
21
-104.7297499999999957
0
LINE
8
BLACK
6
CONTINUOUS
10
107.2910949999999985
20
-104.7297499999999957
11
107.2845700000000022
21
-104.847061999999994
0
LINE
8
BLACK
6
CONTINUOUS
10
107.2845700000000022
20
-104.847061999999994
11
107.2874809999999997
21
-104.9259380000000021
0
LINE
8
BLACK
6
CONTINUOUS
10
107.2874809999999997
20
-104.9259380000000021
11
107.3025650000000013
21
-105.0385069999999956
0
LINE
8
BLACK
6
CONTINUOUS
10
107.3025650000000013
20
-105.0385069999999956
11
107.3301349999999985
21
-105.1433229999999952
0
LINE
8
BLACK
6
CONTINUOUS
10
107.3301349999999985
20
-105.1433229999999952
11
107.3697710000000001
21
-105.2394219999999905
0
LINE
8
BLACK
6
CONTINUOUS
10
107.3697710000000001
20
-105.2394219999999905
11
107.4210489999999965
21
-105.325839000000002
0
LINE
8
BLACK
6
CONTINUOUS
10
107.4210489999999965
20
-105.325839000000002
11
107.4835470000000015
21
-105.401607999999996
0
LINE
8
BLACK
6
CONTINUOUS
10
107.4835470000000015
20
-105.401607999999996
11
107.5568439999999981
21
-105.4657660000000021
0
LINE
8
BLACK
6
CONTINUOUS
10
107.5568439999999981
20
-105.4657660000000021
11
107.6405169999999885
21
-105.5173459999999892
0
LINE
8
BLACK
6
CONTINUOUS
10
107.6405169999999885
20
-105.5173459999999892
11
107.7341440000000006
21
-105.555382999999992
0
LINE
8
BLACK
6
CONTINUOUS
10
107.7341440000000006
20
-105.555382999999992
11
107.837301999999994
21
-105.5789139999999975
0
LINE
8
BLACK
6
CONTINUOUS
10
107.837301999999994
20
-105.5789139999999975
11
107.9495699999999943
21
-105.5869719999999887
0
LINE
8
BLACK
6
CONTINUOUS
10
107.9495699999999943
20
-105.5869719999999887
11
108.0254889999999932
21
-105.5833659999999981
0
LINE
8
BLACK
6
CONTINUOUS
10
108.0254889999999932
20
-105.5833659999999981
11
108.1318349999999953
21
-105.5648860000000013
0
LINE
8
BLACK
6
CONTINUOUS
10
108.1318349999999953
20
-105.5648860000000013
11
108.2287689999999998
21
-105.5315769999999986
0
LINE
8
BLACK
6
CONTINUOUS
10
108.2287689999999998
20
-105.5315769999999986
11
108.3158710000000013
21
-105.4844039999999978
0
LINE
8
BLACK
6
CONTINUOUS
10
108.3158710000000013
20
-105.4844039999999978
11
108.392721999999992
21
-105.4243319999999926
0
LINE
8
BLACK
6
CONTINUOUS
10
108.392721999999992
20
-105.4243319999999926
11
108.4589009999999973
21
-105.3523259999999908
0
LINE
8
BLACK
6
CONTINUOUS
10
108.4589009999999973
20
-105.3523259999999908
11
108.5139899999999926
21
-105.2693510000000003
0
LINE
8
BLACK
6
CONTINUOUS
10
108.5139899999999926
20
-105.2693510000000003
11
108.5575669999999917
21
-105.1763720000000006
0
LINE
8
BLACK
6
CONTINUOUS
10
108.5575669999999917
20
-105.1763720000000006
11
108.5892130000000009
21
-105.0743539999999996
0
LINE
8
BLACK
6
CONTINUOUS
10
108.5892130000000009
20
-105.0743539999999996
11
108.608508999999998
21
-104.9642629999999883
0
LINE
8
BLACK
6
CONTINUOUS
10
108.608508999999998
20
-104.9642629999999883
11
108.6150339999999943
21
-104.847061999999994
0
LINE
8
BLACK
6
CONTINUOUS
10
108.6150339999999943
20
-104.847061999999994
11
108.6121239999999943
21
-104.7681089999999955
0
LINE
8
BLACK
6
CONTINUOUS
10
108.6121239999999943
20
-104.7681089999999955
11
108.5970379999999977
21
-104.6554429999999911
0
LINE
8
BLACK
6
CONTINUOUS
10
108.5970379999999977
20
-104.6554429999999911
11
108.5694620000000015
21
-104.550547999999992
0
LINE
8
BLACK
6
CONTINUOUS
10
108.5694620000000015
20
-104.550547999999992
11
108.5298149999999993
21
-104.454386999999997
0
LINE
8
BLACK
6
CONTINUOUS
10
108.5298149999999993
20
-104.454386999999997
11
108.4785169999999965
21
-104.3679240000000021
0
LINE
8
BLACK
6
CONTINUOUS
10
108.4785169999999965
20
-104.3679240000000021
11
108.4159879999999987
21
-104.292121999999992
0
LINE
8
BLACK
6
CONTINUOUS
10
108.4159879999999987
20
-104.292121999999992
11
108.342647999999997
21
-104.2279419999999988
0
LINE
8
BLACK
6
CONTINUOUS
10
108.342647999999997
20
-104.2279419999999988
11
108.2589159999999993
21
-104.1763490000000019
0
LINE
8
BLACK
6
CONTINUOUS
10
108.2589159999999993
20
-104.1763490000000019
11
108.1652119999999968
21
-104.1383039999999909
0
LINE
8
BLACK
6
CONTINUOUS
10
108.1652119999999968
20
-104.1383039999999909
11
108.0619569999999925
21
-104.1147720000000021
0
LINE
8
BLACK
6
CONTINUOUS
10
108.0619569999999925
20
-104.1147720000000021
11
107.9495699999999943
21
-104.1067129999999992
0
LINE
8
BLACK
6
CONTINUOUS
10
107.9495699999999943
20
-104.1067129999999992
11
107.8737339999999989
21
-104.1103189999999898
0
LINE
8
BLACK
6
CONTINUOUS
10
111.370166999999995
20
-105.0853460000000013
11
111.3730639999999994
21
-105.1557490000000001
0
LINE
8
BLACK
6
CONTINUOUS
10
111.3730639999999994
20
-105.1557490000000001
11
111.387644999999992
21
-105.249418999999989
0
LINE
8
BLACK
6
CONTINUOUS
10
111.387644999999992
20
-105.249418999999989
11
111.424082999999996
21
-105.3533819999999963
0
LINE
8
BLACK
6
CONTINUOUS
10
111.424082999999996
20
-105.3533819999999963
11
111.4770010000000013
21
-105.4353149999999886
0
LINE
8
BLACK
6
CONTINUOUS
10
111.4770010000000013
20
-105.4353149999999886
11
111.5431829999999991
21
-105.4972789999999918
0
LINE
8
BLACK
6
CONTINUOUS
10
111.5431829999999991
20
-105.4972789999999918
11
111.6396689999999978
21
-105.549790999999999
0
LINE
8
BLACK
6
CONTINUOUS
10
111.6396689999999978
20
-105.549790999999999
11
111.7455829999999963
21
-105.5783469999999937
0
LINE
8
BLACK
6
CONTINUOUS
10
111.7455829999999963
20
-105.5783469999999937
11
111.8546469999999999
21
-105.5869719999999887
0
LINE
8
BLACK
6
CONTINUOUS
10
111.8546469999999999
20
-105.5869719999999887
11
111.9441929999999985
21
-105.5817639999999926
0
LINE
8
BLACK
6
CONTINUOUS
10
111.9441929999999985
20
-105.5817639999999926
11
112.05471
21
-105.5582979999999935
0
LINE
8
BLACK
6
CONTINUOUS
10
112.05471
20
-105.5582979999999935
11
112.1573509999999914
21
-105.5120000000000005
0
LINE
8
BLACK
6
CONTINUOUS
10
112.1573509999999914
20
-105.5120000000000005
11
112.2292519999999882
21
-105.455648999999994
0
LINE
8
BLACK
6
CONTINUOUS
10
112.2292519999999882
20
-105.455648999999994
11
112.288330000000002
21
-105.3797589999999929
0
LINE
8
BLACK
6
CONTINUOUS
10
112.288330000000002
20
-105.3797589999999929
11
112.3311259999999976
21
-105.2821399999999983
0
LINE
8
BLACK
6
CONTINUOUS
10
112.3311259999999976
20
-105.2821399999999983
11
112.3504579999999891
21
-105.1933499999999952
0
LINE
8
BLACK
6
CONTINUOUS
10
112.3504579999999891
20
-105.1933499999999952
11
112.3572259999999972
21
-105.0901819999999987
0
LINE
8
BLACK
6
CONTINUOUS
10
112.3572259999999972
20
-105.0901819999999987
11
112.3572259999999972
21
-103.9462460000000021
0
LINE
8
BLACK
6
CONTINUOUS
10
112.3572259999999972
20
-103.9462460000000021
11
112.6152439999999899
21
-103.9462460000000021
0
LINE
8
BLACK
6
CONTINUOUS
10
112.6152439999999899
20
-103.9462460000000021
11
112.6152439999999899
21
-105.1205169999999924
0
LINE
8
BLACK
6
CONTINUOUS
10
112.6152439999999899
20
-105.1205169999999924
11
112.6087670000000003
21
-105.2230009999999965
0
LINE
8
BLACK
6
CONTINUOUS
10
112.6087670000000003
20
-105.2230009999999965
11
112.5892209999999949
21
-105.3211479999999938
0
LINE
8
BLACK
6
CONTINUOUS
10
112.5892209999999949
20
-105.3211479999999938
11
112.5564339999999959
21
-105.4137029999999982
0
LINE
8
BLACK
6
CONTINUOUS
10
112.5564339999999959
20
-105.4137029999999982
11
112.5102349999999944
21
-105.4994129999999899
0
LINE
8
BLACK
6
CONTINUOUS
10
112.5102349999999944
20
-105.4994129999999899
11
112.4504499999999894
21
-105.5770219999999995
0
LINE
8
BLACK
6
CONTINUOUS
10
112.4504499999999894
20
-105.5770219999999995
11
112.3769080000000002
21
-105.645276999999993
0
LINE
8
BLACK
6
CONTINUOUS
10
112.3769080000000002
20
-105.645276999999993
11
112.2894369999999924
21
-105.7029249999999934
0
LINE
8
BLACK
6
CONTINUOUS
10
112.2894369999999924
20
-105.7029249999999934
11
112.187864999999988
21
-105.7487099999999884
0
LINE
8
BLACK
6
CONTINUOUS
10
112.187864999999988
20
-105.7487099999999884
11
112.0720199999999949
21
-105.7813790000000012
0
LINE
8
BLACK
6
CONTINUOUS
10
112.0720199999999949
20
-105.7813790000000012
11
111.9417289999999952
21
-105.7996769999999884
0
LINE
8
BLACK
6
CONTINUOUS
10
111.9417289999999952
20
-105.7996769999999884
11
111.8467579999999941
21
-105.8032729999999901
0
LINE
8
BLACK
6
CONTINUOUS
10
111.8467579999999941
20
-105.8032729999999901
11
111.7538499999999999
21
-105.7996849999999966
0
LINE
8
BLACK
6
CONTINUOUS
10
111.7538499999999999
20
-105.7996849999999966
11
111.6271259999999899
21
-105.7815049999999957
0
LINE
8
BLACK
6
CONTINUOUS
10
111.6271259999999899
20
-105.7815049999999957
11
111.5152519999999896
21
-105.7492249999999956
0
LINE
8
BLACK
6
CONTINUOUS
10
111.5152519999999896
20
-105.7492249999999956
11
111.4178699999999935
21
-105.7042639999999949
0
LINE
8
BLACK
6
CONTINUOUS
10
111.4178699999999935
20
-105.7042639999999949
11
111.3346269999999976
21
-105.6480389999999971
0
LINE
8
BLACK
6
CONTINUOUS
10
111.3346269999999976
20
-105.6480389999999971
11
111.2651659999999936
21
-105.5819659999999942
0
LINE
8
BLACK
6
CONTINUOUS
10
111.2651659999999936
20
-105.5819659999999942
11
111.2091309999999993
21
-105.5074630000000013
0
LINE
8
BLACK
6
CONTINUOUS
10
111.2091309999999993
20
-105.5074630000000013
11
111.166167999999999
21
-105.4259459999999962
0
LINE
8
BLACK
6
CONTINUOUS
10
111.166167999999999
20
-105.4259459999999962
11
111.1359199999999987
21
-105.3388339999999914
0
LINE
8
BLACK
6
CONTINUOUS
10
111.1359199999999987
20
-105.3388339999999914
11
111.1180329999999969
21
-105.2475419999999957
0
LINE
8
BLACK
6
CONTINUOUS
10
111.1180329999999969
20
-105.2475419999999957
11
111.1121489999999881
21
-105.1534889999999933
0
LINE
8
BLACK
6
CONTINUOUS
10
111.1121489999999881
20
-105.1534889999999933
11
111.1121489999999881
21
-103.9462460000000021
0
LINE
8
BLACK
6
CONTINUOUS
10
111.1121489999999881
20
-103.9462460000000021
11
111.370166999999995
21
-103.9462460000000021
0
LINE
8
BLACK
6
CONTINUOUS
10
111.370166999999995
20
-103.9462460000000021
11
111.370166999999995
21
-105.0853460000000013
0
LINE
8
BLACK
6
CONTINUOUS
10
105.8097829999999959
20
-105.4673899999999946
11
105.8148879999999963
21
-105.4673899999999946
0
LINE
8
BLACK
6
CONTINUOUS
10
105.8148879999999963
20
-105.4673899999999946
11
106.3578399999999959
21
-103.9462460000000021
0
LINE
8
BLACK
6
CONTINUOUS
10
106.3578399999999959
20
-103.9462460000000021
11
106.7249119999999891
21
-103.9462460000000021
0
LINE
8
BLACK
6
CONTINUOUS
10
106.7249119999999891
20
-103.9462460000000021
11
106.7249119999999891
21
-105.7469999999999999
0
LINE
8
BLACK
6
CONTINUOUS
10
106.7249119999999891
20
-105.7469999999999999
11
106.4747830000000022
21
-105.7469999999999999
0
LINE
8
BLACK
6
CONTINUOUS
10
106.4747830000000022
20
-105.7469999999999999
11
106.4747830000000022
21
-104.6839569999999924
0
LINE
8
BLACK
6
CONTINUOUS
10
106.4747830000000022
20
-104.6839569999999924
11
106.4754089999999991
21
-104.6269089999999977
0
LINE
8
BLACK
6
CONTINUOUS
10
106.4754089999999991
20
-104.6269089999999977
11
106.4768600000000021
21
-104.5342969999999951
0
LINE
8
BLACK
6
CONTINUOUS
10
106.4768600000000021
20
-104.5342969999999951
11
106.4782730000000015
21
-104.4378289999999936
0
LINE
8
BLACK
6
CONTINUOUS
10
106.4782730000000015
20
-104.4378289999999936
11
106.479416999999998
21
-104.3354250000000008
0
LINE
8
BLACK
6
CONTINUOUS
10
106.479416999999998
20
-104.3354250000000008
11
106.4798879999999883
21
-104.2364060000000023
0
LINE
8
BLACK
6
CONTINUOUS
10
106.4798879999999883
20
-104.2364060000000023
11
106.4747830000000022
21
-104.2364060000000023
0
LINE
8
BLACK
6
CONTINUOUS
10
106.4747830000000022
20
-104.2364060000000023
11
105.9373999999999967
21
-105.7469999999999999
0
LINE
8
BLACK
6
CONTINUOUS
10
105.9373999999999967
20
-105.7469999999999999
11
105.6821659999999952
21
-105.7469999999999999
0
LINE
8
BLACK
6
CONTINUOUS
10
105.6821659999999952
20
-105.7469999999999999
11
105.1447829999999897
21
-104.2386049999999926
0
LINE
8
BLACK
6
CONTINUOUS
10
105.1447829999999897
20
-104.2386049999999926
11
105.139214999999993
21
-104.2386049999999926
0
LINE
8
BLACK
6
CONTINUOUS
10
105.139214999999993
20
-104.2386049999999926
11
105.1393519999999882
21
-104.2865460000000013
0
LINE
8
BLACK
6
CONTINUOUS
10
105.1393519999999882
20
-104.2865460000000013
11
105.1402879999999982
21
-104.3876029999999986
0
LINE
8
BLACK
6
CONTINUOUS
10
105.1402879999999982
20
-104.3876029999999986
11
105.1417379999999895
21
-104.4877169999999893
0
LINE
8
BLACK
6
CONTINUOUS
10
105.1417379999999895
20
-104.4877169999999893
11
105.1434919999999948
21
-104.5907769999999886
0
LINE
8
BLACK
6
CONTINUOUS
10
105.1434919999999948
20
-104.5907769999999886
11
105.1447829999999897
21
-104.6839569999999924
0
LINE
8
BLACK
6
CONTINUOUS
10
105.1447829999999897
20
-104.6839569999999924
11
105.1447829999999897
21
-105.7469999999999999
0
LINE
8
BLACK
6
CONTINUOUS
10
105.1447829999999897
20
-105.7469999999999999
11
104.8946539999999885
21
-105.7469999999999999
0
LINE
8
BLACK
6
CONTINUOUS
10
104.8946539999999885
20
-105.7469999999999999
11
104.8946539999999885
21
-103.9462460000000021
0
LINE
8
BLACK
6
CONTINUOUS
10
104.8946539999999885
20
-103.9462460000000021
11
105.2645109999999988
21
-103.9462460000000021
0
LINE
8
BLACK
6
CONTINUOUS
10
105.2645109999999988
20
-103.9462460000000021
11
105.8097829999999959
21
-105.4673899999999946
0
LINE
8
BLACK
6
CONTINUOUS
10
110.0634170000000012
20
-103.9503819999999905
11
110.1911319999999961
21
-103.9716480000000018
0
LINE
8
BLACK
6
CONTINUOUS
10
110.1911319999999961
20
-103.9716480000000018
11
110.3078000000000003
21
-104.0101310000000012
0
LINE
8
BLACK
6
CONTINUOUS
10
110.3078000000000003
20
-104.0101310000000012
11
110.4128559999999908
21
-104.064865999999995
0
LINE
8
BLACK
6
CONTINUOUS
10
110.4128559999999908
20
-104.064865999999995
11
110.5057359999999989
21
-104.1348879999999895
0
LINE
8
BLACK
6
CONTINUOUS
10
110.5057359999999989
20
-104.1348879999999895
11
110.5858739999999898
21
-104.2192309999999935
0
LINE
8
BLACK
6
CONTINUOUS
10
110.5858739999999898
20
-104.2192309999999935
11
110.6527079999999899
21
-104.3169319999999942
0
LINE
8
BLACK
6
CONTINUOUS
10
110.6527079999999899
20
-104.3169319999999942
11
110.7056719999999927
21
-104.4270250000000004
0
LINE
8
BLACK
6
CONTINUOUS
10
110.7056719999999927
20
-104.4270250000000004
11
110.7442029999999988
21
-104.5485439999999926
0
LINE
8
BLACK
6
CONTINUOUS
10
110.7442029999999988
20
-104.5485439999999926
11
110.7615919999999932
21
-104.635429000000002
0
LINE
8
BLACK
6
CONTINUOUS
10
110.7615919999999932
20
-104.635429000000002
11
110.7721480000000014
21
-104.7266769999999951
0
LINE
8
BLACK
6
CONTINUOUS
10
110.7721480000000014
20
-104.7266769999999951
11
110.7757039999999904
21
-104.8220029999999952
0
LINE
8
BLACK
6
CONTINUOUS
10
110.7757039999999904
20
-104.8220029999999952
11
110.7734609999999975
21
-104.8988279999999946
0
LINE
8
BLACK
6
CONTINUOUS
10
110.7734609999999975
20
-104.8988279999999946
11
110.7610990000000015
21
-105.0172290000000004
0
LINE
8
BLACK
6
CONTINUOUS
10
110.7610990000000015
20
-105.0172290000000004
11
110.7368179999999995
21
-105.136611000000002
0
LINE
8
BLACK
6
CONTINUOUS
10
110.7368179999999995
20
-105.136611000000002
11
110.699350999999993
21
-105.2538089999999897
0
LINE
8
BLACK
6
CONTINUOUS
10
110.699350999999993
20
-105.2538089999999897
11
110.6474369999999965
21
-105.3656549999999896
0
LINE
8
BLACK
6
CONTINUOUS
10
110.6474369999999965
20
-105.3656549999999896
11
110.5798089999999974
21
-105.4689819999999969
0
LINE
8
BLACK
6
CONTINUOUS
10
110.5798089999999974
20
-105.4689819999999969
11
110.495205999999996
21
-105.5606229999999925
0
LINE
8
BLACK
6
CONTINUOUS
10
110.495205999999996
20
-105.5606229999999925
11
110.392360999999994
21
-105.6374129999999951
0
LINE
8
BLACK
6
CONTINUOUS
10
110.392360999999994
20
-105.6374129999999951
11
110.2700109999999967
21
-105.6961829999999907
0
LINE
8
BLACK
6
CONTINUOUS
10
110.2700109999999967
20
-105.6961829999999907
11
110.1769850000000019
21
-105.7237889999999965
0
LINE
8
BLACK
6
CONTINUOUS
10
110.1769850000000019
20
-105.7237889999999965
11
110.0743530000000021
21
-105.7410399999999981
0
LINE
8
BLACK
6
CONTINUOUS
10
110.0743530000000021
20
-105.7410399999999981
11
109.9617409999999893
21
-105.7469999999999999
0
LINE
8
BLACK
6
CONTINUOUS
10
109.9617409999999893
20
-105.7469999999999999
11
109.1983599999999939
21
-105.7469999999999999
0
LINE
8
BLACK
6
CONTINUOUS
10
109.1983599999999939
20
-105.7469999999999999
11
109.1983599999999939
21
-105.5381719999999888
0
LINE
8
BLACK
6
CONTINUOUS
10
109.1983599999999939
20
-105.5381719999999888
11
109.1983599999999939
21
-103.9462460000000021
0
LINE
8
BLACK
6
CONTINUOUS
10
109.1983599999999939
20
-103.9462460000000021
11
109.9724140000000006
21
-103.9462460000000021
0
LINE
8
BLACK
6
CONTINUOUS
10
109.9724140000000006
20
-103.9462460000000021
11
110.0634170000000012
21
-103.9503819999999905
0
LINE
8
BLACK
6
CONTINUOUS
10
109.4563780000000008
20
-105.5381719999999888
11
109.9566359999999889
21
-105.5381719999999888
0
LINE
8
BLACK
6
CONTINUOUS
10
109.9566359999999889
20
-105.5381719999999888
11
109.9877010000000013
21
-105.5374470000000002
0
LINE
8
BLACK
6
CONTINUOUS
10
109.9877010000000013
20
-105.5374470000000002
11
110.10474099999999
21
-105.5201739999999972
0
LINE
8
BLACK
6
CONTINUOUS
10
110.10474099999999
20
-105.5201739999999972
11
110.2093349999999958
21
-105.4802799999999934
0
LINE
8
BLACK
6
CONTINUOUS
10
110.2093349999999958
20
-105.4802799999999934
11
110.3002970000000005
21
-105.4182639999999935
0
LINE
8
BLACK
6
CONTINUOUS
10
110.3002970000000005
20
-105.4182639999999935
11
110.3764439999999922
21
-105.3346269999999976
0
LINE
8
BLACK
6
CONTINUOUS
10
110.3764439999999922
20
-105.3346269999999976
11
110.4231169999999906
21
-105.2580109999999962
0
LINE
8
BLACK
6
CONTINUOUS
10
110.4231169999999906
20
-105.2580109999999962
11
110.4602900000000005
21
-105.1697240000000022
0
LINE
8
BLACK
6
CONTINUOUS
10
110.4602900000000005
20
-105.1697240000000022
11
110.4874599999999987
21
-105.0699779999999919
0
LINE
8
BLACK
6
CONTINUOUS
10
110.4874599999999987
20
-105.0699779999999919
11
110.5041299999999893
21
-104.9589829999999893
0
LINE
8
BLACK
6
CONTINUOUS
10
110.5041299999999893
20
-104.9589829999999893
11
110.5097969999999918
21
-104.8369509999999991
0
LINE
8
BLACK
6
CONTINUOUS
10
110.5097969999999918
20
-104.8369509999999991
11
110.5091529999999977
21
-104.7951169999999905
0
LINE
8
BLACK
6
CONTINUOUS
10
110.5091529999999977
20
-104.7951169999999905
11
110.4996199999999931
21
-104.6775329999999968
0
LINE
8
BLACK
6
CONTINUOUS
10
110.4996199999999931
20
-104.6775329999999968
11
110.4790339999999986
21
-104.5718399999999946
0
LINE
8
BLACK
6
CONTINUOUS
10
110.4790339999999986
20
-104.5718399999999946
11
110.4478439999999893
21
-104.4780529999999885
0
LINE
8
BLACK
6
CONTINUOUS
10
110.4478439999999893
20
-104.4780529999999885
11
110.40649599999999
21
-104.3961869999999976
0
LINE
8
BLACK
6
CONTINUOUS
10
110.40649599999999
20
-104.3961869999999976
11
110.3363389999999953
21
-104.3056019999999933
0
LINE
8
BLACK
6
CONTINUOUS
10
110.3363389999999953
20
-104.3056019999999933
11
110.2499799999999937
21
-104.2362729999999971
0
LINE
8
BLACK
6
CONTINUOUS
10
110.2499799999999937
20
-104.2362729999999971
11
110.1484799999999922
21
-104.1882359999999892
0
LINE
8
BLACK
6
CONTINUOUS
10
110.1484799999999922
20
-104.1882359999999892
11
110.0328979999999888
21
-104.1615269999999924
0
LINE
8
BLACK
6
CONTINUOUS
10
110.0328979999999888
20
-104.1615269999999924
11
109.9376099999999923
21
-104.1555129999999991
0
LINE
8
BLACK
6
CONTINUOUS
10
109.9376099999999923
20
-104.1555129999999991
11
109.4563780000000008
21
-104.1555129999999991
0
LINE
8
BLACK
6
CONTINUOUS
10
109.4563780000000008
20
-104.1555129999999991
11
109.4563780000000008
21
-105.5381719999999888
0
LINE
8
BLACK
6
CONTINUOUS
10
113.2816359999999918
20
-105.530698000000001
11
114.2501319999999936
21
-105.530698000000001
0
LINE
8
BLACK
6
CONTINUOUS
10
114.2501319999999936
20
-105.530698000000001
11
114.2501319999999936
21
-105.7469999999999999
0
LINE
8
BLACK
6
CONTINUOUS
10
114.2501319999999936
20
-105.7469999999999999
11
113.023617999999999
21
-105.7469999999999999
0
LINE
8
BLACK
6
CONTINUOUS
10
113.023617999999999
20
-105.7469999999999999
11
113.023617999999999
21
-103.9462460000000021
0
LINE
8
BLACK
6
CONTINUOUS
10
113.023617999999999
20
-103.9462460000000021
11
113.2816359999999918
21
-103.9462460000000021
0
LINE
8
BLACK
6
CONTINUOUS
10
113.2816359999999918
20
-103.9462460000000021
11
113.2816359999999918
21
-105.530698000000001
0
LINE
8
BLACK
6
CONTINUOUS
10
199.5794259999999838
20
-90.939241999999993
11
199.5999699999999848
21
-90.9975309999999951
0
LINE
8
BLACK
6
CONTINUOUS
10
199.5999699999999848
20
-90.9975309999999951
11
199.5999999999999943
21
-91.
0
LINE
8
BLACK
6
CONTINUOUS
10
199.5999999999999943
20
-91.
11
199.5999999999999943
21
-94.
0
LINE
8
BLACK
6
CONTINUOUS
10
199.5999999999999943
20
-94.
11
199.5809019999999805
21
-94.0587790000000012
0
LINE
8
BLACK
6
CONTINUOUS
10
199.5809019999999805
20
-94.0587790000000012
11
199.5309019999999975
21
-94.0951060000000012
0
LINE
8
BLACK
6
CONTINUOUS
10
199.5309019999999975
20
-94.0951060000000012
11
199.5
21
-94.0999999999999943
0
LINE
8
BLACK
6
CONTINUOUS
10
199.5
20
-94.0999999999999943
11
197.4315670000000011
21
-94.0999999999999943
0
LINE
8
BLACK
6
CONTINUOUS
10
197.4315670000000011
20
-94.0999999999999943
11
197.3727879999999857
21
-94.0809019999999947
0
LINE
8
BLACK
6
CONTINUOUS
10
197.3727879999999857
20
-94.0809019999999947
11
197.3364609999999857
21
-94.0309019999999975
0
LINE
8
BLACK
6
CONTINUOUS
10
197.3364609999999857
20
-94.0309019999999975
11
197.3364609999999857
21
-93.9690980000000025
0
LINE
8
BLACK
6
CONTINUOUS
10
197.3364609999999857
20
-93.9690980000000025
11
197.349238999999983
21
-93.9432369999999963
0
LINE
8
BLACK
6
CONTINUOUS
10
197.349238999999983
20
-93.9432369999999963
11
199.4176719999999818
21
-90.9432369999999963
0
LINE
8
BLACK
6
CONTINUOUS
10
199.4176719999999818
20
-90.9432369999999963
11
199.4667599999999936
21
-90.9056860000000029
0
LINE
8
BLACK
6
CONTINUOUS
10
199.4667599999999936
20
-90.9056860000000029
11
199.5285439999999824
21
-90.9041599999999903
0
LINE
8
BLACK
6
CONTINUOUS
10
199.5285439999999824
20
-90.9041599999999903
11
199.5794259999999838
21
-90.939241999999993
0
LINE
8
BLACK
6
CONTINUOUS
10
203.558778999999987
20
-90.9190979999999911
11
203.595105999999987
21
-90.9690980000000025
0
LINE
8
BLACK
6
CONTINUOUS
10
203.595105999999987
20
-90.9690980000000025
11
203.5999999999999943
21
-91.
0
LINE
8
BLACK
6
CONTINUOUS
10
203.5999999999999943
20
-91.
11
203.5999999999999943
21
-94.
0
LINE
8
BLACK
6
CONTINUOUS
10
203.5999999999999943
20
-94.
11
203.5809019999999805
21
-94.0587790000000012
0
LINE
8
BLACK
6
CONTINUOUS
10
203.5809019999999805
20
-94.0587790000000012
11
203.5309019999999975
21
-94.0951060000000012
0
LINE
8
BLACK
6
CONTINUOUS
10
203.5309019999999975
20
-94.0951060000000012
11
203.5
21
-94.0999999999999943
0
LINE
8
BLACK
6
CONTINUOUS
10
203.5
20
-94.0999999999999943
11
200.5
21
-94.0999999999999943
0
LINE
8
BLACK
6
CONTINUOUS
10
200.5
20
-94.0999999999999943
11
200.4412209999999845
21
-94.0809019999999947
0
LINE
8
BLACK
6
CONTINUOUS
10
200.4412209999999845
20
-94.0809019999999947
11
200.4048939999999845
21
-94.0309019999999975
0
LINE
8
BLACK
6
CONTINUOUS
10
200.4048939999999845
20
-94.0309019999999975
11
200.4048939999999845
21
-93.9690980000000025
0
LINE
8
BLACK
6
CONTINUOUS
10
200.4048939999999845
20
-93.9690980000000025
11
200.4167949999999792
21
-93.9445300000000003
0
LINE
8
BLACK
6
CONTINUOUS
10
200.4167949999999792
20
-93.9445300000000003
11
202.4167949999999792
21
-90.9445300000000003
0
LINE
8
BLACK
6
CONTINUOUS
10
202.4167949999999792
20
-90.9445300000000003
11
202.4652899999999818
21
-90.9062169999999981
0
LINE
8
BLACK
6
CONTINUOUS
10
202.4652899999999818
20
-90.9062169999999981
11
202.5
21
-90.8999999999999915
0
LINE
8
BLACK
6
CONTINUOUS
10
202.5
20
-90.8999999999999915
11
203.5
21
-90.8999999999999915
0
LINE
8
BLACK
6
CONTINUOUS
10
203.5
20
-90.8999999999999915
11
203.558778999999987
21
-90.9190979999999911
0
LINE
8
BLACK
6
CONTINUOUS
10
202.058778999999987
20
-90.9190979999999911
11
202.095105999999987
21
-90.9690980000000025
0
LINE
8
BLACK
6
CONTINUOUS
10
202.095105999999987
20
-90.9690980000000025
11
202.095105999999987
21
-91.0309019999999975
0
LINE
8
BLACK
6
CONTINUOUS
10
202.095105999999987
20
-91.0309019999999975
11
202.0823279999999897
21
-91.0567629999999895
0
LINE
8
BLACK
6
CONTINUOUS
10
202.0823279999999897
20
-91.0567629999999895
11
200.0138949999999909
21
-94.0567629999999895
0
LINE
8
BLACK
6
CONTINUOUS
10
200.0138949999999909
20
-94.0567629999999895
11
199.9648069999999791
21
-94.0943139999999971
0
LINE
8
BLACK
6
CONTINUOUS
10
199.9648069999999791
20
-94.0943139999999971
11
199.9030229999999904
21
-94.0958399999999955
0
LINE
8
BLACK
6
CONTINUOUS
10
199.9030229999999904
20
-94.0958399999999955
11
199.8521409999999889
21
-94.0607579999999928
0
LINE
8
BLACK
6
CONTINUOUS
10
199.8521409999999889
20
-94.0607579999999928
11
199.8315969999999879
21
-94.0024689999999907
0
LINE
8
BLACK
6
CONTINUOUS
10
199.8315969999999879
20
-94.0024689999999907
11
199.8315669999999784
21
-94.
0
LINE
8
BLACK
6
CONTINUOUS
10
199.8315669999999784
20
-94.
11
199.8315669999999784
21
-91.
0
LINE
8
BLACK
6
CONTINUOUS
10
199.8315669999999784
20
-91.
11
199.8506649999999922
21
-90.9412209999999988
0
LINE
8
BLACK
6
CONTINUOUS
10
199.8506649999999922
20
-90.9412209999999988
11
199.9006650000000036
21
-90.9048939999999988
0
LINE
8
BLACK
6
CONTINUOUS
10
199.9006650000000036
20
-90.9048939999999988
11
199.9315670000000011
21
-90.8999999999999915
0
LINE
8
BLACK
6
CONTINUOUS
10
199.9315670000000011
20
-90.8999999999999915
11
202.
21
-90.8999999999999915
0
LINE
8
BLACK
6
CONTINUOUS
10
202.
20
-90.8999999999999915
11
202.058778999999987
21
-90.9190979999999911
  0
ENDSEC
  0
EOF
